<svg width="170" height="261" viewBox="0 0 170 261" fill="none" xmlns="http://www.w3.org/2000/svg">
<g clip-path="url(#clip0_1005_1586)">
<path d="M109.09 27.9944L106.356 27.2404C101.453 25.9208 96.3616 28.7485 94.9473 33.7442C94.0044 37.1374 95.0416 40.7192 97.6816 42.9814L125.591 68.431" stroke="black" stroke-width="2" stroke-miterlimit="10"/>
<path d="M159.44 41.7559L162.174 42.5099C167.077 43.8295 170 48.9195 168.68 53.9151C167.737 57.3084 165.003 59.8534 161.608 60.5132L124.554 68.2423" stroke="black" stroke-width="2" stroke-miterlimit="10"/>
<path d="M161.703 42.4158C160.288 47.6942 146.617 48.5425 131.154 44.3009C115.691 40.0593 104.376 32.4244 105.79 27.146C107.205 21.8676 120.876 21.0192 136.339 25.2608C151.803 29.4082 163.117 37.1373 161.703 42.4158Z" fill="white" stroke="black" stroke-width="2" stroke-miterlimit="10"/>
<path d="M123.32 124.839C132.097 92.7518 133.513 65.1816 126.48 63.259C119.448 61.3365 106.632 85.7895 97.8537 117.876C89.0758 149.963 87.6606 177.534 94.6928 179.456C101.725 181.379 114.542 156.926 123.32 124.839Z" fill="white" stroke="black" stroke-width="2" stroke-miterlimit="10"/>
<path d="M136.497 64.6313L117.125 59.335L114.762 67.9725L134.134 73.2688L136.497 64.6313Z" fill="white" stroke="black" stroke-width="2" stroke-miterlimit="10"/>
<path d="M107.11 25.638C107.11 25.4495 107.11 25.3552 107.11 25.1667C107.11 24.6954 106.733 24.1298 106.168 24.2241C105.319 24.3184 104.659 23.7528 103.905 24.5069C103.245 25.1667 102.867 26.5805 102.679 27.5231C102.49 28.2772 102.019 29.5025 102.49 30.1623C103.056 31.0107 104.47 30.7279 105.319 30.6336C106.545 30.6336 106.545 28.7485 105.319 28.7485C104.942 28.7485 104.659 28.7485 104.282 28.7485C104.093 28.7485 103.245 28.56 103.81 28.8427C103.999 29.0313 104.093 29.2198 104.282 29.4083C104.187 29.2198 104.47 28.56 104.47 28.2772C104.565 27.8059 104.753 27.3346 104.942 26.7691C105.036 26.5805 105.225 26.2978 105.225 26.1093C105.225 25.8265 105.13 25.9207 105.225 25.9207C105.507 25.8265 105.885 26.1093 106.262 26.015C105.979 25.7322 105.602 25.3552 105.319 25.0724C105.319 25.2609 105.319 25.3552 105.319 25.5437C105.319 26.8633 107.205 26.8633 107.11 25.638Z" fill="black"/>
<path d="M162.646 41.0019C163.023 41.0962 163.306 41.1904 163.683 41.3789C163.494 41.1904 163.4 41.0019 163.211 40.8134C163.4 41.5675 163.211 42.2273 162.834 42.9813C162.74 43.1698 162.08 44.4894 161.703 44.3009C160.571 43.7354 159.628 45.432 160.76 45.9033C162.646 46.7516 163.871 45.1493 164.626 43.5469C165.003 42.6985 165.286 41.756 165.191 40.8134C165.003 39.6823 164.154 39.3053 163.117 39.1167C161.986 38.9282 161.42 40.8134 162.646 41.0019Z" fill="black"/>
<path d="M135.114 65.2264C135.114 65.1321 135.114 64.9436 135.019 64.8494C134.925 63.9068 133.322 64.001 133.228 64.8494C133.039 65.8862 132.851 66.923 132.568 67.9599C132.474 68.2426 132.002 70.6934 131.908 70.6934C132.191 70.7876 132.474 70.8819 132.851 70.9761C132.568 70.6934 133.134 68.5254 133.228 68.1484C133.417 67.2058 133.699 66.3575 133.888 65.4149C134.171 64.2838 132.474 63.7183 132.097 64.9436C131.908 65.6977 131.625 66.4518 131.437 67.2058C131.342 67.5828 131.059 69.1852 130.682 69.3737C131.059 69.468 131.437 69.468 131.814 69.5623C131.531 69.3737 131.719 67.9599 131.719 67.6771C131.814 66.8288 131.908 66.0747 132.285 65.3207C131.719 65.0379 131.154 64.8494 130.588 64.5666C130.305 65.3207 130.116 66.169 129.834 66.923C129.739 67.3943 129.456 69.091 129.079 69.2795C128.985 69.3737 128.419 69.2795 128.136 69.468C127.854 69.7508 127.759 69.9393 127.665 70.3163C127.382 71.3532 128.891 72.013 129.362 71.0704C130.588 68.8082 131.248 66.3575 131.437 63.8125C130.871 64.001 130.305 64.0953 129.645 64.2838C129.739 64.001 129.834 63.7183 129.834 63.5298C128.796 64.1896 129.739 65.8862 130.776 65.1321C131.437 64.6608 131.625 64.001 131.248 63.3412C130.776 62.4929 129.551 62.8699 129.456 63.8125C129.268 66.0747 128.702 68.1484 127.665 70.1278C128.231 70.4106 128.796 70.5991 129.362 70.8819C129.268 71.1646 129.079 71.1646 129.456 71.0704C129.645 71.0704 129.834 70.9761 130.022 70.8819C130.399 70.6933 130.588 70.3163 130.776 69.9393C131.437 68.4312 131.814 66.6403 132.285 64.9436C132.568 63.9068 131.059 63.247 130.588 64.1896C130.022 65.3207 129.739 66.546 129.739 67.7714C129.739 68.8082 129.551 70.0335 130.305 70.7876C130.682 71.0704 131.059 71.1646 131.437 70.9761C132.191 70.5991 132.379 69.845 132.568 69.091C132.945 67.8656 133.322 66.6403 133.699 65.5092C133.134 65.3207 132.474 65.1321 131.908 65.0379C131.531 66.4517 131.154 67.8656 130.965 69.3737C130.871 70.3163 130.588 71.6359 131.342 72.39C131.531 72.5785 131.908 72.767 132.285 72.6728C133.322 72.2957 133.511 71.2589 133.794 70.2221C134.265 68.7139 134.642 67.1116 134.925 65.5092C134.359 65.5092 133.699 65.5092 133.134 65.5092C133.134 65.6034 133.134 65.7919 133.228 65.8862C133.511 66.923 135.302 66.4517 135.114 65.2264Z" fill="black"/>
<path d="M116.068 36.2892C124.176 39.5883 132.568 42.039 141.148 43.5471C148.691 44.8667 154.631 45.4322 161.42 41.6619C162.457 41.0964 161.514 39.494 160.477 40.0595C152.745 44.3011 144.92 42.5102 136.622 40.7193C129.739 39.2112 123.045 37.0433 116.539 34.4041C115.408 34.027 114.936 35.9122 116.068 36.2892Z" fill="black"/>
<path d="M110.599 28.2773C111.542 27.3347 114.276 27.6175 115.502 27.6175C117.011 27.6175 118.519 27.6175 120.028 27.7117C121.253 27.806 121.253 25.9208 120.028 25.8266C117.765 25.7323 115.502 25.7323 113.239 25.8266C111.825 25.9208 110.316 25.8266 109.279 26.9576C108.43 27.806 109.75 29.1256 110.599 28.2773Z" fill="black"/>
<path d="M114.842 75.2174C117.199 74.5576 119.556 74.8404 121.631 76.0657C122.668 76.6313 123.611 75.0289 122.573 74.4633C120.028 73.0495 117.105 72.6724 114.276 73.4265C113.145 73.7093 113.616 75.5944 114.842 75.2174Z" fill="black"/>
<path d="M118.236 72.6725C118.519 72.107 118.896 71.6357 119.179 71.0701C118.613 70.9759 118.142 70.7874 117.576 70.6931C117.671 71.3529 117.671 72.0127 117.765 72.5782C117.765 73.6151 118.991 73.8036 119.556 73.0495C120.028 72.3897 120.499 71.8242 120.876 71.1644C120.311 70.9759 119.745 70.8816 119.085 70.6931C119.179 71.7299 119.179 72.861 119.273 73.8979C119.273 74.8404 120.499 75.1232 121.065 74.3692C121.442 73.8036 121.913 73.2381 122.291 72.6725C121.725 72.5782 121.159 72.484 120.593 72.484C120.688 73.1438 120.876 73.8979 121.159 74.4634C121.442 75.1232 122.479 75.5002 122.856 74.6519C123.328 73.8036 123.799 72.9553 124.271 72.107C123.705 71.9184 123.139 71.8242 122.479 71.6357C122.573 73.8036 122.573 75.9715 122.479 78.1395C122.385 79.3648 124.176 79.2706 124.365 78.1395C124.459 76.5371 125.025 75.1232 125.968 73.9921C125.402 73.8036 124.836 73.7093 124.176 73.5208C123.705 85.6801 119.933 97.0853 115.973 108.49C116.539 108.679 117.199 108.868 117.765 108.962C121.536 96.8968 122.951 84.2662 126.439 72.2012C125.779 72.107 125.214 72.0127 124.554 71.9184C123.894 82.7581 121.536 93.2207 117.671 103.306C118.236 103.495 118.896 103.683 119.462 103.778C119.745 102.741 120.028 101.798 120.311 100.761C120.593 99.6303 118.802 99.0647 118.519 100.29C118.236 101.327 117.953 102.269 117.671 103.306C117.388 104.532 119.085 104.909 119.462 103.778C123.422 93.5035 125.779 82.8524 126.439 71.9184C126.534 70.8816 124.836 70.6931 124.554 71.6357C121.159 83.7949 119.651 96.4255 115.879 108.396C115.502 109.527 117.293 109.999 117.671 108.868C121.725 97.3681 125.496 85.6801 125.874 73.4266C125.874 72.3897 124.648 72.2012 124.082 72.9553C122.951 74.6519 122.479 76.0658 122.196 78.0452C122.856 78.0452 123.422 78.0452 124.082 78.0452C124.176 75.8773 124.176 73.7093 124.082 71.5414C124.082 70.5988 122.762 70.2218 122.291 71.0701C121.819 71.9184 121.348 72.7668 120.876 73.6151C121.442 73.7093 122.008 73.8036 122.573 73.8036C122.291 73.1438 122.008 72.484 122.008 71.8242C121.819 70.9759 120.688 70.9759 120.311 71.6357C119.933 72.2012 119.462 72.7668 119.085 73.3323C119.651 73.5208 120.216 73.6151 120.876 73.8036C120.782 72.7668 120.782 71.6357 120.688 70.5988C120.688 69.6563 119.462 69.3735 118.896 70.1275C118.425 70.7874 117.953 71.3529 117.576 72.0127C118.142 72.2012 118.708 72.2955 119.368 72.484C119.368 71.2586 119.368 71.2586 119.085 70.0333C118.896 69.3735 117.953 69.0907 117.482 69.6563C116.539 70.6931 116.539 70.7873 116.068 72.107C116.068 73.3323 117.859 73.8036 118.236 72.6725Z" fill="black"/>
<path d="M122.573 73.8038C121.725 85.963 119.273 97.8395 115.219 109.433C114.842 110.564 116.633 111.036 117.011 109.905C121.065 98.2166 123.516 86.1516 124.365 73.8038C124.554 72.5784 122.668 72.5784 122.573 73.8038Z" fill="black"/>
<path d="M126.722 74.8408C127.571 74.7465 128.419 74.6522 129.268 74.558C129.079 73.9924 128.985 73.4269 128.796 72.7671C127.382 73.6154 127.665 73.4269 126.439 74.6522C125.779 75.3121 126.439 76.4432 127.382 76.2546C128.231 75.9719 129.174 75.7833 130.022 75.5006C129.645 75.0293 129.268 74.558 128.985 74.0867C127.854 75.7833 126.534 77.3857 125.214 78.8939C124.459 79.6479 125.402 80.8733 126.345 80.402C127.571 79.7422 128.891 79.0824 130.116 78.4226C129.645 77.9513 129.268 77.5742 128.796 77.103C127.476 79.0824 126.062 80.779 124.365 82.3814C124.836 82.7584 125.308 83.1355 125.874 83.5125C126.911 82.8527 127.854 82.2871 128.891 81.6273C128.514 81.2503 128.136 80.8733 127.759 80.4962C126.816 82.8527 125.496 84.6436 123.611 86.3402C124.082 86.7173 124.554 87.0943 125.119 87.4713C125.874 85.8689 127.194 84.7378 129.079 84.078C128.702 83.701 128.325 83.324 127.948 82.9469C126.911 85.8689 125.308 88.0369 122.856 89.922C123.328 90.3933 123.705 90.7703 124.176 91.2416C125.308 88.6967 126.911 87 129.268 85.5862C128.796 85.3976 128.325 85.2091 127.854 85.0206C128.985 87.9426 123.045 93.8809 121.536 95.4832C122.008 95.8603 122.479 96.2373 123.045 96.6143C124.365 93.6923 126.345 91.4302 129.174 89.8278C128.702 89.545 128.231 89.2622 127.759 88.9794C127.194 93.3153 122.856 97.5569 120.028 100.667C120.593 100.95 121.065 101.233 121.631 101.61C122.479 99.5363 123.705 97.5569 125.402 96.0488C129.739 92.09 126.345 96.5201 125.496 97.8397C123.422 101.139 120.782 103.872 117.765 106.323C118.236 106.7 118.708 107.077 119.273 107.454C121.253 103.872 123.799 101.044 127.288 98.8765C126.816 98.4995 126.345 98.1225 125.874 97.8397C125.025 102.458 120.405 106.983 117.293 110.376C117.859 110.659 118.331 110.942 118.896 111.319C119.368 109.622 120.311 108.114 121.631 106.888C121.159 106.511 120.688 106.134 120.122 105.757C118.896 107.642 117.482 109.339 115.973 111.036C116.539 111.224 117.011 111.507 117.576 111.696C117.953 110.753 118.236 109.905 118.613 108.962C118.048 108.679 117.482 108.302 117.011 108.02C116.068 109.81 115.125 111.413 113.993 113.109C114.559 113.392 115.125 113.581 115.691 113.864C115.973 113.109 116.162 112.355 116.445 111.696C115.879 111.413 115.313 111.224 114.748 110.942C114.559 111.413 114.371 111.884 114.182 112.355C113.71 113.486 115.502 113.958 115.973 112.827C116.162 112.355 116.351 111.884 116.539 111.413C116.916 110.47 115.313 109.716 114.842 110.659C114.182 112.073 114.182 111.79 113.899 113.298C113.71 114.335 115.031 114.9 115.596 114.052C116.728 112.355 117.671 110.753 118.613 108.962C119.179 107.925 117.576 106.983 117.011 108.02C116.256 109.245 115.973 110.282 115.785 111.696C115.691 112.544 116.916 112.921 117.388 112.355C118.991 110.564 120.499 108.679 121.819 106.7C122.385 105.852 121.065 104.815 120.311 105.569C118.802 107.171 117.859 108.774 117.105 110.847C116.822 111.696 118.048 112.45 118.708 111.79C122.008 108.208 126.911 103.401 127.759 98.4995C127.854 97.7454 127.099 96.9914 126.345 97.4627C122.668 99.9134 119.839 102.93 117.671 106.794C117.105 107.737 118.331 108.585 119.179 107.925C122.102 105.569 124.648 102.835 126.816 99.7248C127.948 98.1225 130.116 95.5775 129.174 93.5038C128.985 93.0325 128.702 92.844 128.231 92.844C124.459 92.3727 121.065 98.5937 119.933 101.421C119.556 102.27 120.876 103.024 121.536 102.364C124.836 98.7823 129.174 94.4464 129.834 89.3565C129.928 88.6024 128.985 88.2254 128.419 88.5082C125.308 90.3933 123.139 92.7498 121.631 96.0488C121.253 96.9914 122.291 98.0282 123.139 97.1799C125.591 94.6349 131.531 88.7909 130.022 84.8321C129.834 84.2666 129.174 83.9838 128.608 84.2666C125.874 85.8689 124.082 87.7541 122.856 90.5818C122.479 91.3359 123.328 92.5612 124.176 91.9014C127.005 89.7335 128.891 87.1885 130.211 83.7953C130.494 83.0412 129.739 82.4756 129.079 82.6642C126.534 83.2297 125.308 84.7378 123.988 86.9058C123.422 87.8483 124.648 88.7909 125.496 88.0369C127.571 86.1517 129.079 83.9838 130.116 81.3446C130.399 80.5905 129.551 80.0249 128.985 80.2135C127.005 80.5905 125.968 81.3446 124.836 82.9469C124.176 83.8895 125.591 84.8321 126.345 84.078C128.136 82.2871 129.645 80.4962 131.059 78.4226C131.625 77.5742 130.588 76.7259 129.739 77.103C128.514 77.7628 127.194 78.4226 125.968 79.0824C126.345 79.5537 126.722 80.0249 127.099 80.5905C128.608 78.8939 129.928 77.1972 131.248 75.4063C131.719 74.7465 130.965 73.8039 130.211 73.9924C129.362 74.2752 128.419 74.4637 127.571 74.7465C127.854 75.3121 128.136 75.7833 128.514 76.3489C129.174 75.8776 129.834 75.3121 130.494 74.8408C131.248 74.3695 130.965 73.0499 130.022 73.0499C128.419 73.0499 128.514 73.0499 127.005 73.4269C125.025 73.3326 125.496 75.1235 126.722 74.8408Z" fill="black"/>
<path d="M116.068 113.863C118.991 113.769 121.819 114.24 124.648 114.9C125.402 115.088 126.251 114.24 125.685 113.486C125.591 113.298 125.402 113.109 125.308 112.921C124.648 111.978 122.951 112.826 123.705 113.863C123.799 114.052 123.988 114.24 124.082 114.429C124.459 113.957 124.836 113.486 125.119 113.015C122.102 112.261 119.179 111.695 116.068 111.884C114.842 112.072 114.842 113.957 116.068 113.863Z" fill="black"/>
<path d="M126.439 73.0498C126.534 76.2546 126.345 79.4593 125.874 82.6641C125.685 83.8895 127.476 84.3607 127.665 83.1354C128.231 79.7421 128.514 76.3488 128.325 72.9555C128.325 71.8245 126.439 71.8244 126.439 73.0498Z" fill="black"/>
<path d="M129.079 76.7258C129.174 77.0086 129.174 77.3856 129.268 77.6684C128.702 77.6684 128.136 77.6684 127.665 77.6684C128.985 79.6478 128.231 85.1148 128.136 87.2827C127.948 91.053 127.288 94.6348 126.345 98.2166C126.062 99.3477 127.854 99.9133 128.136 98.6879C129.174 94.7291 129.928 90.5817 130.116 86.4344C130.211 83.8894 130.776 78.8938 129.362 76.6316C128.985 75.9718 128.136 76.066 127.759 76.6316L127.665 76.7258C127.476 77.0086 127.476 77.6684 127.854 77.8569C127.854 77.8569 127.948 77.8569 127.948 77.9512C128.702 78.8938 130.022 77.4799 129.079 76.7258Z" fill="black"/>
<path d="M127.288 91.0528C127.099 96.991 126.345 102.741 124.742 108.396C124.459 109.527 126.251 110.093 126.534 108.868C128.136 103.024 128.985 97.0853 129.079 91.0528C129.174 89.8275 127.288 89.8275 127.288 91.0528Z" fill="black"/>
<path d="M126.911 99.6302C126.156 103.872 125.025 108.019 123.422 112.072C122.951 113.203 124.836 113.675 125.214 112.544C126.816 108.49 127.948 104.343 128.702 100.101C128.891 98.9704 127.099 98.4049 126.911 99.6302Z" fill="black"/>
<path d="M123.893 105.38C123.045 107.642 122.102 109.904 121.065 112.167C121.631 112.261 122.196 112.355 122.762 112.355C122.762 112.166 122.668 111.978 122.668 111.789C122.385 110.564 120.593 111.13 120.876 112.261C120.876 112.449 120.971 112.638 120.971 112.826C121.159 113.58 122.385 113.769 122.668 113.015C123.799 110.658 124.742 108.302 125.685 105.851C126.156 104.72 124.365 104.249 123.893 105.38Z" fill="black"/>
<path d="M124.271 102.081C123.799 103.684 123.328 105.192 122.668 106.7C122.385 107.265 121.065 110.47 120.688 110.47C120.971 110.753 121.348 111.13 121.631 111.413C121.631 111.224 121.725 111.036 121.725 110.847C122.385 109.81 120.782 108.868 120.122 109.905C119.745 110.376 119.651 110.847 119.745 111.413C119.839 111.884 120.122 112.355 120.688 112.355C122.291 112.355 123.045 109.999 123.705 108.774C124.742 106.794 125.496 104.721 126.062 102.553C126.439 101.327 124.554 100.856 124.271 102.081Z" fill="black"/>
<path d="M121.442 106.605C120.122 108.491 118.708 110.281 117.105 111.884C117.576 112.261 118.048 112.638 118.613 113.015C118.896 112.449 119.179 111.978 119.651 111.601C119.179 111.13 118.802 110.753 118.331 110.281C117.859 110.753 117.576 111.318 117.293 111.884C116.822 113.015 118.425 113.957 118.896 112.826C119.085 112.355 119.368 111.978 119.651 111.601C120.405 110.658 119.179 109.433 118.331 110.281C117.765 110.847 117.293 111.413 117.011 112.167C116.539 113.109 117.671 114.146 118.519 113.298C120.216 111.601 121.819 109.716 123.233 107.642C123.705 106.605 122.102 105.663 121.442 106.605Z" fill="black"/>
<path d="M73.5441 199.732L59.2124 202.56L20.8375 5.65534C20.0832 1.69651 34.3206 -1.13122 35.1692 2.82761L73.5441 199.732Z" fill="white" stroke="black" stroke-width="2" stroke-miterlimit="10"/>
<path d="M10.0887 61.2676L30.2662 57.026L21.3089 11.9707L1.13145 16.3066L10.0887 61.2676Z" fill="white" stroke="black" stroke-width="2" stroke-miterlimit="10"/>
<path d="M11.0316 57.12C10.9373 57.2142 10.7488 57.2142 10.6545 57.3085C9.71159 57.7798 10.3716 59.3821 11.4088 59.0051C15.746 57.6855 20.1775 56.6487 24.609 55.9889C25.8347 55.8003 25.269 54.0094 24.1375 54.198C19.706 54.8578 15.2745 55.8946 10.9373 57.2142C11.2202 57.7798 11.4088 58.3453 11.6916 58.9109C11.7859 58.8166 11.9745 58.8166 12.0688 58.7223C13.0116 58.251 12.0688 56.6487 11.0316 57.12Z" fill="black"/>
<path d="M11.0316 58.3457C14.8974 57.7802 18.5746 56.9318 22.2518 55.7065C23.3833 55.3295 22.9118 53.5386 21.7804 53.9156C18.1032 55.141 14.426 55.9893 10.5602 56.5548C9.33444 56.6491 9.80588 58.5342 11.0316 58.3457Z" fill="black"/>
<path d="M10.7488 56.9315C14.8031 56.1774 18.8575 55.2349 22.8175 54.198C23.949 53.9152 23.4775 52.1243 22.3461 52.4071C18.386 53.444 14.3317 54.2923 10.2773 55.1406C9.05158 55.3291 9.52302 57.2143 10.7488 56.9315Z" fill="black"/>
<path d="M9.99445 53.2553C13.7659 52.1242 17.5374 51.3702 21.4032 50.8989C22.629 50.7104 22.629 48.8252 21.4032 49.0137C17.3489 49.485 13.3888 50.3333 9.42873 51.4644C8.39157 51.8415 8.86301 53.6324 9.99445 53.2553Z" fill="black"/>
<path d="M8.39157 49.2025C11.6916 48.5427 14.9917 47.8829 18.2917 47.2231C19.5175 47.0345 18.9517 45.1494 17.8203 45.4322C14.5202 46.092 11.2202 46.7518 7.92013 47.4116C6.6944 47.6001 7.26012 49.391 8.39157 49.2025Z" fill="black"/>
<path d="M8.76872 46.2806C11.4088 45.9036 14.0488 45.5265 16.7831 45.1495C18.0089 44.961 17.4431 43.1701 16.3117 43.3586C13.6717 43.7356 11.0316 44.1127 8.29728 44.4897C7.07155 44.6782 7.63727 46.4691 8.76872 46.2806Z" fill="black"/>
<path d="M8.58014 39.3053C8.29728 39.3053 7.92013 39.3996 7.63727 39.3996C7.73156 40.0594 7.82584 40.625 7.92013 41.2848C10.9373 40.2479 14.1431 39.4939 17.2546 38.9283C18.4803 38.7398 17.9146 36.9489 16.7831 37.1374C13.5774 37.703 10.4659 38.457 7.4487 39.4939C6.50582 39.7766 6.60011 41.4733 7.73156 41.379C8.01442 41.379 8.39157 41.2848 8.67443 41.2848C9.71159 41.0962 9.71159 39.2111 8.58014 39.3053Z" fill="black"/>
<path d="M6.50582 37.5145C9.52302 37.1375 12.4459 36.5719 15.3688 35.7236C16.5003 35.3466 16.0288 33.5557 14.8974 33.9327C12.1631 34.6868 9.42873 35.3466 6.60011 35.6293C5.28009 35.8178 5.28009 37.703 6.50582 37.5145Z" fill="black"/>
<path d="M6.31725 35.0638C10.843 34.2155 15.3688 33.3672 19.8946 32.3303C21.1204 32.0476 20.5546 30.2567 19.4232 30.5394C14.8974 31.5763 10.3716 32.5189 5.84581 33.2729C4.62008 33.4614 5.09151 35.3466 6.31725 35.0638Z" fill="black"/>
<path d="M5.56295 32.4247C11.0316 31.6707 16.406 30.7281 21.7804 29.3142C22.9118 29.0315 22.4404 27.2406 21.3089 27.5233C16.1231 28.8429 10.9373 29.8798 5.56295 30.5396C4.4315 30.7281 4.33722 32.6133 5.56295 32.4247Z" fill="black"/>
<path d="M4.62008 27.523C10.2773 26.6747 16.0288 25.6378 21.6861 24.5068C22.9118 24.3182 22.3461 22.4331 21.2146 22.7159C15.5574 23.8469 9.90016 24.7895 4.14864 25.7321C2.9229 25.8264 3.48863 27.7115 4.62008 27.523Z" fill="black"/>
<path d="M5.65724 24.4127C10.4659 23.3758 15.2745 22.339 20.0832 21.3964C21.3089 21.2079 20.7432 19.3227 19.6118 19.6055C14.8031 20.5481 9.99445 21.4907 5.1858 22.6218C4.05435 22.8103 4.52579 24.6954 5.65724 24.4127Z" fill="black"/>
<path d="M3.86578 21.0192C9.99445 19.8881 16.1231 18.8512 22.2518 17.7201C23.4775 17.5316 22.9118 15.6465 21.7804 15.9292C15.6517 17.0603 9.52302 18.0972 3.39434 19.2283C2.16861 19.4168 2.73433 21.2077 3.86578 21.0192Z" fill="black"/>
<path d="M4.05435 16.9662C9.33444 16.2121 14.7088 15.5523 19.9889 14.7982C21.0261 14.6097 20.7432 12.9131 19.706 12.9131C19.6118 12.9131 19.4232 12.9131 19.3289 12.9131C18.1032 13.0073 18.1032 14.8925 19.3289 14.7982C19.4232 14.7982 19.6118 14.7982 19.706 14.7982C19.6118 14.1384 19.5175 13.5729 19.4232 12.9131C14.1431 13.7614 8.863 14.4212 3.58292 15.1753C2.35718 15.3638 2.82862 17.1547 4.05435 16.9662Z" fill="black"/>
<path d="M137.848 114.9H20.1775C16.8774 114.9 14.3317 117.917 14.9917 121.216L41.3921 252.894C42.2407 257.041 45.9179 260.057 50.1608 260.057H105.602C109.845 260.057 113.522 257.136 114.37 252.988L142.845 121.31C143.694 118.011 141.148 114.9 137.848 114.9Z" fill="white" stroke="black" stroke-width="2" stroke-miterlimit="10"/>
<path d="M20.1775 123.383C26.4004 123.383 32.6234 123.383 38.7521 123.383C40.2607 123.383 40.2607 121.027 38.7521 121.027C32.5291 121.027 26.3062 121.027 20.1775 121.027C18.6689 121.027 18.6689 123.383 20.1775 123.383Z" fill="black"/>
</g>
<defs>
<clipPath id="clip0_1005_1586">
<rect width="170" height="261" fill="white"/>
</clipPath>
</defs>
</svg>
