<svg width="144" height="178" viewBox="0 0 144 178" fill="none" xmlns="http://www.w3.org/2000/svg">
<g clip-path="url(#clip0_1005_2747)">
<path d="M81.0406 72.8691C85.9549 63.4128 99.8635 62.0222 109.229 60.9097C120.077 59.7045 130.926 59.8899 141.867 60.0753C143.073 60.0753 143.073 58.2212 141.867 58.2212C129.164 58.0358 116.368 57.8503 103.758 59.7972C94.9491 61.1878 83.915 63.1347 79.4642 71.8493C78.9079 72.9618 80.4842 73.8889 81.0406 72.8691Z" fill="black"/>
<path d="M142.238 58.3138C136.211 67.6773 122.024 72.7763 111.825 75.9284C100.976 79.2659 89.6639 80.6565 78.3516 80.1003C77.1462 80.0075 77.1462 81.8617 78.3516 81.9544C90.8693 82.5107 103.48 80.8419 115.348 76.7628C125.27 73.3325 137.88 68.5117 143.815 59.3336C144.464 58.2211 142.887 57.294 142.238 58.3138Z" fill="black"/>
<path d="M61.6613 79.6367C51.6471 74.8159 49.4218 62.7638 50.9053 52.7513C52.4816 42.1826 57.7669 32.7263 63.0522 23.5482C63.6085 22.5284 62.0322 21.6013 61.4759 22.6211C55.3561 33.1899 49.2363 44.3149 48.68 56.8305C48.2163 66.3794 51.5544 76.8555 60.7341 81.3055C61.8467 81.6763 62.774 80.1003 61.6613 79.6367Z" fill="black"/>
<path d="M62.1249 23.2701C69.2646 40.3284 74.8281 58.7774 71.1191 77.4117C70.8409 78.6169 72.6954 79.0805 72.8809 77.8753C76.6825 58.8701 71.1191 40.143 63.8867 22.7138C63.423 21.694 61.6613 22.1576 62.1249 23.2701Z" fill="black"/>
<path d="M59.4359 78.8023C47.5673 81.2127 35.9768 82.2325 24.9427 76.2065C15.6703 71.2002 8.62331 63.2273 1.66903 55.5325C0.834518 54.6054 -0.463615 55.996 0.370899 56.8304C8.06697 65.4523 16.0412 74.3523 26.7044 79.1731C37.3677 84.0867 48.68 82.8815 59.8068 80.5637C61.105 80.3783 60.6413 78.6169 59.4359 78.8023Z" fill="black"/>
<path d="M1.20541 56.0884C16.9684 53.0291 36.7186 54.6978 48.9581 66.1009C49.7927 66.9353 51.1835 65.6374 50.2563 64.803C37.4604 52.8437 17.1539 51.1749 0.649067 54.327C-0.463618 54.5124 1.14037e-06 56.3666 1.20541 56.0884Z" fill="black"/>
<path d="M129.442 166.133C128.886 168.729 127.588 170.861 126.475 173.272C126.197 173.828 125.641 176.609 126.104 176.238C125.919 176.424 125.177 176.146 124.899 176.238C122.859 176.702 120.17 176.238 118.13 176.238C109.507 176.238 100.791 176.238 92.1674 176.238C71.9536 176.238 51.6471 176.146 31.4334 176.146C28.3735 176.146 25.3136 176.146 22.3464 176.146C21.7901 176.146 20.7701 176.331 20.3065 176.146C17.6175 175.033 15.0213 169.193 14.094 166.782C13.8158 167.153 13.5377 167.524 13.1668 167.987C47.3818 167.802 81.5042 167.709 115.719 167.524C120.634 167.524 125.455 167.524 130.37 167.431C131.575 167.431 131.575 165.577 130.37 165.577C96.1546 165.762 62.0322 165.855 27.8171 166.041C22.9028 166.041 18.0811 166.041 13.1668 166.133C12.6104 166.133 12.0541 166.689 12.2395 167.338C13.5377 170.676 16.4121 177.073 20.2138 178.093C21.6046 178.463 23.6446 178.093 25.0354 178.093C32.8242 178.093 40.7057 178.093 48.4945 178.093C69.2647 178.093 90.1275 178.185 110.898 178.185C115.997 178.185 121.005 178.185 126.104 178.185C126.475 178.185 126.939 177.907 127.032 177.536C127.866 173.735 130.277 170.583 131.111 166.782C131.482 165.484 129.721 164.928 129.442 166.133Z" fill="black"/>
<path d="M35.6987 166.782L8.62331 82.3252H134.264L108.672 165.114" stroke="black" stroke-width="2" stroke-miterlimit="10"/>
<path d="M73.8081 59.7971C76.6825 51.7315 86.0476 46.4471 93.4655 43.1096C100.976 39.6794 109.043 37.5471 116.925 35.5076C118.037 35.2294 117.574 33.3753 116.461 33.7461C107.374 36.1565 98.2872 38.5669 89.942 42.8315C82.9878 46.3544 74.8281 51.6388 72.0464 59.3336C71.5827 60.4461 73.4372 60.9096 73.8081 59.7971Z" fill="black"/>
<path d="M115.441 34.4877C113.772 39.4939 111.732 44.222 109.136 48.7647C107.003 52.4731 103.758 59.1481 99.5853 60.6314C98.4726 61.0022 98.9363 62.8564 100.049 62.3929C104.222 60.9095 107.281 55.1616 109.414 51.6387C112.659 46.3543 115.256 40.7918 117.203 34.8585C117.574 33.8387 115.812 33.3752 115.441 34.4877Z" fill="black"/>
<path d="M33.3806 54.976C22.9955 45.3343 18.6375 31.7989 14.5576 18.5416C14.1867 17.4291 12.425 17.8927 12.7959 19.0052C16.9685 32.4479 21.5119 46.3541 32.0824 56.2739C32.9169 57.1083 34.2151 55.8104 33.3806 54.976Z" fill="black"/>
<path d="M15.2994 18.4489C15.2994 18.3562 15.2994 18.3562 15.2994 18.4489C15.114 18.8198 15.0212 19.2833 14.9285 19.6541C15.9485 19.0052 24.2936 23.0843 25.0354 23.3625C28.0953 24.7531 30.9697 26.2364 33.8442 27.9979C39.3149 31.4281 48.8654 37.0833 49.6072 44.2218C49.6999 45.4271 51.5544 45.4271 51.4617 44.2218C50.7199 36.4343 42.0966 31.0573 36.0695 27.2562C32.1751 24.7531 28.0026 22.6208 23.7373 20.8593C21.8828 20.1177 15.8558 16.8729 14.0013 18.0781C13.6304 18.3562 13.3522 18.9125 13.6304 19.376C14.3722 20.3031 16.0412 19.376 15.2994 18.4489Z" fill="black"/>
<path d="M67.9665 32.7263C67.8738 32.6336 67.7811 32.5409 67.6883 32.4481C66.8538 31.6138 65.5557 32.9117 66.3902 33.7461C66.4829 33.8388 66.5757 33.9315 66.6684 34.0242C67.5029 34.8586 68.801 33.5606 67.9665 32.7263Z" fill="black"/>
<path d="M56.1906 34.9512C52.9453 23.6407 62.0322 11.0324 67.5956 1.76158C68.2447 0.741786 66.5757 -0.185297 66.0193 0.834495C60.1777 10.5689 50.9981 23.4553 54.4288 35.4147C54.707 36.6199 56.4688 36.0637 56.1906 34.9512Z" fill="black"/>
<path d="M66.0193 1.39077C70.2846 7.60222 75.2917 13.8137 78.8152 20.5814C82.8023 28.3689 82.6169 36.8053 82.0605 45.2418C81.9678 46.447 83.8223 46.447 83.915 45.2418C84.3786 37.547 84.7495 29.7595 81.7824 22.5283C78.4443 14.4626 72.4173 7.41681 67.5956 0.370974C66.9466 -0.556109 65.2775 0.370974 66.0193 1.39077Z" fill="black"/>
<path d="M84.1005 28.7395C85.584 21.5083 89.8493 16.7801 94.671 11.4958C95.5055 10.5687 94.2073 9.27076 93.3728 10.1978C88.3657 15.7603 83.8223 20.6739 82.3387 28.276C82.0605 29.3885 83.915 29.852 84.1005 28.7395Z" fill="black"/>
<path d="M93.2801 12.2378C94.5782 13.1649 94.9491 17.7076 95.2273 19.1909C95.6909 21.6014 95.8764 24.0118 96.0618 26.4222C96.2473 31.1503 95.8764 35.693 94.9491 40.3284C94.7637 41.5337 96.5254 41.9972 96.7109 40.792C97.9163 34.6732 98.2872 28.4618 97.5454 22.2503C97.1745 19.0982 97.0818 12.7014 94.2073 10.5691C93.2801 9.92011 92.3529 11.5889 93.2801 12.2378Z" fill="black"/>
<path d="M41.4475 30.4084C40.7985 23.2699 42.3748 16.1313 43.3947 9.08548C42.8384 9.08548 42.1893 9.08548 41.633 9.08548C41.7257 9.36361 41.7257 9.64173 41.8184 9.91986C42.0966 11.1251 43.8583 10.5688 43.5802 9.45632C43.4874 9.17819 43.4874 8.90007 43.3947 8.62194C43.2093 7.78757 41.7257 7.69486 41.633 8.62194C40.5203 15.7605 38.944 23.0844 39.593 30.4084C39.6858 31.5209 41.5402 31.5209 41.4475 30.4084Z" fill="black"/>
<path d="M42.282 9.45651C46.3619 13.5357 50.1636 17.8003 53.7798 22.4357C54.5216 23.3628 55.8197 22.0648 55.0779 21.1378C51.5544 16.5951 47.7527 12.2378 43.5802 8.1586C42.6529 7.32422 41.3548 8.62214 42.282 9.45651Z" fill="black"/>
<path d="M71.8609 78.8024C85.2131 78.2462 98.4726 76.7629 111.547 73.9816C121.746 71.7566 133.893 67.7702 141.496 60.3535C142.331 59.5191 141.033 58.2212 140.198 59.0556C132.41 66.6577 119.985 70.4587 109.507 72.591C97.0818 75.0941 84.4713 76.5774 71.8609 77.041C70.6555 76.9483 70.6555 78.8024 71.8609 78.8024Z" fill="black"/>
<path d="M72.8809 77.319C83.2659 60.9096 99.5853 47.096 115.441 36.2492C116.461 35.6002 115.534 33.9315 114.514 34.6731C98.2872 45.7054 81.7824 59.6117 71.3046 76.3919C70.6555 77.4117 72.2318 78.3387 72.8809 77.319Z" fill="black"/>
<path d="M57.6742 82.4177C61.0122 82.5105 64.2576 82.2323 67.5029 81.7688C67.132 81.3052 66.7611 80.8417 66.4829 80.3782C66.3902 80.4709 66.3902 80.5636 66.2975 80.6563C65.5557 81.5834 67.2247 82.5104 67.8738 81.5834C67.9665 81.4907 67.9665 81.3979 68.0592 81.3052C68.6156 80.5636 67.6884 79.8219 67.0393 79.9146C63.8867 80.3782 60.8268 80.5636 57.6742 80.4709C56.4688 80.5636 56.4688 82.4177 57.6742 82.4177Z" fill="black"/>
<path d="M56.2833 82.4178C64.5357 81.398 72.6954 80.471 80.9479 79.4512C82.1533 79.2657 82.1533 77.4116 80.9479 77.597C72.6954 78.6168 64.5357 79.5439 56.2833 80.5637C55.0779 80.7491 55.0779 82.6033 56.2833 82.4178Z" fill="black"/>
<path d="M67.6883 81.7689C69.4501 80.7491 71.1191 79.7293 72.8809 78.8022C73.9008 78.246 72.9736 76.5772 71.9536 77.2262C70.1919 78.246 68.5229 79.2658 66.7611 80.1928C65.7412 80.8418 66.6684 82.4178 67.6883 81.7689Z" fill="black"/>
<path d="M68.2447 81.8618C73.3445 81.9545 78.3516 81.5837 83.3587 80.842C84.5641 80.6566 84.0077 78.8951 82.8951 79.0805C78.0734 79.8222 73.1591 80.1003 68.2447 80.0076C67.0393 80.0076 67.0393 81.8618 68.2447 81.8618Z" fill="black"/>
<path d="M80.2988 76.9479C79.7424 74.1667 81.3187 70.0875 83.0805 67.9552C83.8223 67.0282 82.5241 65.7302 81.7823 66.6573C79.557 69.4386 77.888 73.8886 78.537 77.4115C78.7225 78.6167 80.5769 78.1532 80.2988 76.9479Z" fill="black"/>
<path d="M15.2994 171.789C17.5248 171.789 19.8429 171.789 22.0683 171.789C23.2737 171.789 23.2737 169.935 22.0683 169.935C19.8429 169.935 17.5248 169.935 15.2994 169.935C14.094 169.935 14.094 171.789 15.2994 171.789Z" fill="black"/>
<path d="M80.0206 171.789C96.2473 171.789 112.381 171.789 128.608 171.789C129.813 171.789 129.813 169.935 128.608 169.935C112.381 169.935 96.2473 169.935 80.0206 169.935C78.8152 169.935 78.8152 171.789 80.0206 171.789Z" fill="black"/>
<path d="M30.3207 86.6826C40.8912 87.3316 51.5544 85.292 62.0322 86.8681C63.2376 87.0535 63.7012 85.292 62.4958 85.1066C51.7399 83.4379 41.0766 85.4774 30.2279 84.8285C29.1153 84.7358 29.1153 86.5899 30.3207 86.6826Z" fill="black"/>
<path d="M72.2318 75.8354C73.9009 77.6896 75.9408 79.0802 78.2589 80.1C79.3716 80.5635 80.2988 78.9875 79.1861 78.524C77.0535 77.5969 75.1063 76.299 73.53 74.5375C72.6954 73.7031 71.3973 75.001 72.2318 75.8354Z" fill="black"/>
<path d="M73.7154 74.2593C75.199 75.4645 76.7753 77.1332 78.6297 77.9676C79.7424 78.4312 80.6697 76.8551 79.557 76.3916C77.888 75.6499 76.4044 74.1666 75.0135 72.9614C74.0863 72.127 72.7881 73.5176 73.7154 74.2593Z" fill="black"/>
<path d="M75.0135 72.8691C76.4044 74.2597 77.9807 75.1868 79.7424 75.9285C80.8551 76.392 81.3187 74.5379 80.2061 74.167C78.7225 73.6108 77.4243 72.6837 76.3117 71.5712C75.4772 70.7368 74.179 72.0347 75.0135 72.8691Z" fill="black"/>
<path d="M75.848 70.7368C76.9607 71.6639 78.1661 72.4056 79.4643 73.0546C80.4842 73.6108 81.5042 72.0348 80.3915 71.4785C79.2788 70.9223 78.1661 70.1806 77.1462 69.4389C76.7753 69.1608 76.2189 69.0681 75.848 69.4389C75.4771 69.717 75.3844 70.4587 75.848 70.7368Z" fill="black"/>
<path d="M77.0535 69.068C77.9807 69.8096 79.0006 70.5513 79.9279 71.293C80.2988 71.5711 80.9478 71.3857 81.226 70.9221C81.5042 70.4586 81.3187 69.9951 80.8551 69.6242C79.9279 68.8826 78.9079 68.1409 77.9807 67.3992C77.6098 67.1211 76.9607 67.3065 76.6826 67.7701C76.4971 68.2336 76.6826 68.6971 77.0535 69.068Z" fill="black"/>
<path d="M78.4443 67.2136C79.3715 67.7698 80.2988 68.3261 81.226 68.9751C82.246 69.624 83.1732 68.048 82.1532 67.399C81.226 66.8428 80.2988 66.2865 79.3715 65.6376C78.3516 64.9886 77.4243 66.5646 78.4443 67.2136Z" fill="black"/>
<path d="M81.0406 64.896C81.8751 65.6376 82.8023 66.3793 83.8223 66.9355C84.8422 67.4918 85.7695 65.9158 84.7495 65.3595C83.915 64.896 83.0805 64.3397 82.3387 63.598C81.5042 62.7637 80.2061 64.0616 81.0406 64.896Z" fill="black"/>
<path d="M83.7296 63.1343C84.6568 63.876 85.584 64.6176 86.5113 65.3593C86.8822 65.6374 87.4385 65.7301 87.8094 65.3593C88.1803 64.9885 88.1803 64.3395 87.8094 64.0614C86.8822 63.3197 85.9549 62.5781 85.0277 61.8364C84.6568 61.5583 84.1004 61.4656 83.7296 61.8364C83.4514 62.1145 83.3587 62.7635 83.7296 63.1343Z" fill="black"/>
<path d="M84.935 61.4657C86.5113 62.7636 88.273 63.8761 90.1275 64.8032C91.2402 65.3594 92.1674 63.6907 91.0547 63.2271C89.3857 62.3927 87.7167 61.373 86.2331 60.1677C85.3059 59.4261 84.0077 60.724 84.935 61.4657Z" fill="black"/>
<path d="M87.5312 59.7972C89.293 61.2805 91.2402 62.4857 93.2801 63.5055C94.3928 63.9691 95.32 62.393 94.2073 61.9295C92.2601 61.0024 90.4984 59.8899 88.8294 58.4993C87.9021 57.7576 86.604 59.0555 87.5312 59.7972Z" fill="black"/>
<path d="M89.4784 55.9959C92.4456 58.5918 95.8764 60.3532 99.7708 61.1876C100.976 61.4657 101.44 59.6116 100.234 59.4261C96.7109 58.6845 93.5583 57.1084 90.7766 54.698C89.8493 53.9563 88.5512 55.2543 89.4784 55.9959Z" fill="black"/>
<path d="M92.2601 54.1419C95.4127 56.5523 99.029 57.9429 102.923 58.0356C104.129 58.0356 104.129 56.1815 102.923 56.1815C99.4926 56.0887 96.2473 54.9763 93.5583 52.844C92.631 52.1023 91.2402 53.4929 92.2601 54.1419Z" fill="black"/>
<path d="M74.4572 72.4054C75.4772 72.4981 76.4044 70.2731 76.868 69.6242C77.7952 68.2336 78.8152 67.0284 79.9279 65.8231C81.6896 63.8763 83.7296 62.0221 85.6768 60.1679C86.5113 59.3336 85.2131 58.0356 84.3786 58.87C81.1333 61.9294 77.7952 65.0815 75.2917 68.7898C74.4572 69.9023 71.3046 74.0742 74.4572 74.445C75.6626 74.445 75.6626 72.5909 74.4572 72.4054Z" fill="black"/>
<path d="M80.6697 68.7897H80.7624C81.3187 68.7897 81.6896 68.3261 81.6896 67.8626V67.7699C81.6896 67.2136 81.226 66.8428 80.7624 66.8428C79.1861 66.7501 77.7025 69.4386 76.9607 70.5511C75.6626 72.498 73.9008 74.723 74.179 77.1334C74.2717 77.9678 75.4772 78.5241 75.9408 77.597C77.6098 73.7959 79.3715 69.9022 82.246 66.8428C81.6896 66.5647 81.226 66.2866 80.6697 65.9157C79.4643 69.0678 77.5171 71.9418 77.0535 75.2793C76.9607 76.2064 78.2589 77.0407 78.7225 76.0209C79.2788 74.8157 79.8352 73.7032 80.2988 72.498C79.7424 72.2199 79.1861 72.0345 78.6298 71.7564C78.1661 73.147 78.0734 74.5376 78.0734 76.0209C78.1661 77.0407 79.6497 77.3189 79.9279 76.2991C80.0206 76.1137 80.0206 75.8355 80.1133 75.6501C79.4643 75.5574 78.9079 75.4647 78.2589 75.372C78.2589 76.0209 78.2589 76.5772 78.2589 77.2262C78.2589 78.4314 80.1133 78.4314 80.1133 77.2262C80.1133 76.5772 80.1133 76.0209 80.1133 75.372C80.1133 74.3522 78.537 74.0741 78.2589 75.0939C78.1661 75.2793 78.1661 75.5574 78.0734 75.7428C78.7225 75.8355 79.2788 75.9282 79.9279 76.0209C79.8352 74.723 80.0206 73.5178 80.3915 72.2199C80.6697 71.2001 79.1861 70.5511 78.7225 71.4782C78.1661 72.6834 77.6098 73.7959 77.1462 75.0012C77.7025 75.2793 78.2589 75.4647 78.8152 75.7428C79.2788 72.4053 81.226 69.5314 82.4314 66.3793C82.8023 65.5449 81.5042 64.8032 80.8551 65.4522C77.888 68.697 76.0335 72.5907 74.2717 76.5772C74.8281 76.7626 75.3844 76.8553 76.0335 77.0407C75.848 75.2793 77.0535 73.7032 77.9807 72.2199C78.2589 71.7564 80.2061 68.5116 80.7624 68.5116C80.4842 68.2334 80.1133 67.8626 79.8352 67.5845V67.6772C80.1133 67.3991 80.4842 67.0282 80.7624 66.7501H80.6697C79.4643 66.8428 79.4643 68.697 80.6697 68.7897Z" fill="black"/>
<path d="M83.0805 66.5649C79.7424 69.3461 78.8152 73.6107 78.7225 77.8753C78.7225 79.0805 80.5769 79.0805 80.5769 77.8753C80.6697 74.0742 81.4115 70.3659 84.3786 67.8628C85.3059 67.1211 84.0077 65.7305 83.0805 66.5649Z" fill="black"/>
<path d="M66.7611 32.17C69.9137 39.494 72.2318 47.0961 73.7154 54.8836C73.9008 56.0888 75.7553 55.5325 75.4771 54.42C73.9008 46.4471 71.49 38.7523 68.3374 31.2429C67.8738 30.1304 66.2975 31.0575 66.7611 32.17Z" fill="black"/>
<path d="M73.7154 75.8358C74.4572 76.8556 75.2917 77.7827 76.2189 78.617C76.5898 78.8952 77.1462 78.9879 77.5171 78.617C77.7952 78.3389 77.888 77.5973 77.5171 77.3191C76.6825 76.6702 75.848 75.8358 75.2917 74.9087C74.6426 73.8889 73.0663 74.816 73.7154 75.8358Z" fill="black"/>
<path d="M74.3644 55.5324C77.0534 52.1022 80.0206 48.8574 83.3587 46.0762C84.2859 45.3345 82.9878 43.9439 82.0605 44.7783C78.6297 47.7449 75.5699 51.0824 72.7881 54.6053C72.0464 55.6251 73.7154 56.5522 74.3644 55.5324Z" fill="black"/>
<path d="M72.4173 52.6586C72.4173 52.6586 72.4173 52.7513 72.4173 52.6586C72.6954 52.3805 73.0663 52.1023 73.3445 51.8242H73.2518C73.5299 52.1951 73.8081 52.5659 74.179 53.0294C74.3645 52.1023 75.848 50.8044 76.4044 50.0628C77.1462 49.1357 77.888 48.3013 78.6298 47.4669C80.0206 45.8909 81.5969 44.3148 83.1732 42.8315C84.0077 41.9971 82.7096 40.6992 81.8751 41.5336C79.9279 43.3878 78.0734 45.2419 76.4044 47.2815C75.6626 48.2086 74.9208 49.1357 74.179 50.0628C73.6227 50.7117 72.6954 51.7315 72.51 52.5659C72.4173 53.1221 72.7881 53.7711 73.4372 53.7711H73.5299C73.9936 53.6784 74.5499 53.4003 74.4572 52.844C74.4572 52.844 74.4572 52.844 74.4572 52.7513C74.179 51.4534 72.3245 51.4534 72.4173 52.6586Z" fill="black"/>
<path d="M73.6227 49.9697C76.7753 45.7978 80.0206 41.626 83.1732 37.3614C83.915 36.4343 82.246 35.5072 81.5969 36.4343C78.4443 40.6062 75.199 44.7781 72.0464 49.0426C71.3046 50.0624 72.8809 50.9895 73.6227 49.9697Z" fill="black"/>
<path d="M81.5042 38.3814C79.0006 42.646 75.848 46.5397 73.7154 50.9897C73.3445 51.8241 74.4572 53.0293 75.199 52.1022C75.2917 52.0095 75.3844 51.9168 75.4771 51.8241C76.2189 50.897 74.9208 49.5991 74.179 50.5262C74.0863 50.6189 73.9936 50.7116 73.9008 50.8043C74.3645 51.1751 74.8281 51.546 75.3844 51.9168C77.5171 47.3741 80.6697 43.573 83.1732 39.3085C83.6368 38.2887 82.0605 37.2689 81.5042 38.3814Z" fill="black"/>
<path d="M81.4115 39.4011C81.0406 41.7188 81.5969 43.8511 81.4115 46.1688C81.3188 47.374 83.1732 47.374 83.266 46.1688C83.4514 44.0365 82.8951 41.9969 83.1732 39.8646C83.3587 38.6594 81.5969 38.1959 81.4115 39.4011Z" fill="black"/>
<path d="M80.8551 43.8511C79.0934 46.9105 76.4044 49.2282 74.5499 52.2876C73.9008 53.3073 75.5699 54.2344 76.1262 53.2146C77.9807 50.248 80.6697 47.8376 82.4314 44.7782C83.0805 43.7584 81.5042 42.8313 80.8551 43.8511Z" fill="black"/>
<path d="M75.199 46.5399C73.8081 47.8379 72.8809 49.5066 72.51 51.4535C72.3245 52.6587 74.0863 53.1222 74.2717 51.917C74.5499 50.341 75.2917 48.9504 76.4971 47.8379C77.3316 47.0035 76.0335 45.7056 75.199 46.5399Z" fill="black"/>
<path d="M71.8609 50.6188C71.7682 52.6583 72.51 54.7906 72.8809 56.7375C73.0663 57.9427 74.9208 57.3865 74.6426 56.274C74.2717 54.5125 73.6227 52.4729 73.7154 50.6188C73.8081 49.4135 71.9536 49.4135 71.8609 50.6188Z" fill="black"/>
<path d="M81.7823 48.5793C82.246 48.2085 82.8023 47.8376 83.2659 47.4668C83.6368 47.1887 83.915 46.6324 83.6368 46.1689C83.3587 45.798 82.8023 45.5199 82.3387 45.798C81.8751 46.1689 81.3187 46.5397 80.8551 46.9105C80.4842 47.1887 80.2061 47.7449 80.4842 48.2085C80.7624 48.672 81.4115 48.8574 81.7823 48.5793Z" fill="black"/>
<path d="M84.3786 29.203C84.4714 28.6468 84.4714 28.0905 84.5641 27.5343C83.915 27.5343 83.3587 27.5343 82.7096 27.5343C82.5242 31.7989 82.6169 35.9707 82.9878 40.2353C83.1732 42.6457 84.2859 45.2416 81.9678 46.8176C81.0406 47.4666 81.9678 49.1353 82.8951 48.3937C84.3786 47.3739 85.3059 46.3541 85.3986 44.6853C85.584 41.9968 84.7495 38.9374 84.5641 36.2489C84.3786 33.3749 84.4714 30.4082 84.5641 27.5343C84.5641 26.3291 82.8023 26.3291 82.7096 27.5343C82.6169 28.0905 82.6169 28.6468 82.5242 29.203C82.3387 30.4082 84.1932 30.4082 84.3786 29.203Z" fill="black"/>
<path d="M81.5969 27.1637C81.9678 32.7262 81.5042 38.1033 80.2988 43.4803C80.0206 44.6856 81.7824 45.1491 82.0605 43.9439C83.3587 38.3814 83.8223 32.8189 83.4514 27.1637C83.3587 25.9585 81.5042 25.9585 81.5969 27.1637Z" fill="black"/>
<path d="M118.594 90.9469C112.474 108.747 106.818 126.64 101.718 144.718C101.347 145.83 103.202 146.387 103.48 145.181C108.672 127.103 114.328 109.21 120.355 91.4105C120.819 90.298 118.965 89.8344 118.594 90.9469Z" fill="black"/>
<path d="M115.534 89.0002C111.732 101.516 107.93 114.031 104.036 126.547C103.665 127.66 105.52 128.216 105.798 127.011C109.599 114.495 113.401 101.979 117.296 89.4638C117.666 88.3513 115.905 87.795 115.534 89.0002Z" fill="black"/>
<path d="M50.9053 166.226C75.4771 167.246 100.049 167.617 124.621 167.339C127.588 167.339 127.588 162.703 124.621 162.703C100.049 162.889 75.4771 162.518 50.9053 161.591C47.9382 161.498 47.9382 166.133 50.9053 166.226Z" fill="black"/>
<path d="M8.15969 58.6846L55.9124 78.4314C55.9124 78.4314 35.9768 82.1398 23.4591 74.5377C10.9414 66.8429 8.15969 58.6846 8.15969 58.6846Z" fill="#43AB35"/>
<path d="M63.0522 28.0908L63.8867 78.6169C63.8867 78.6169 47.4746 73.7033 52.9453 47.6523C56.0051 33.2825 63.0522 28.0908 63.0522 28.0908Z" fill="#43AB35"/>
<path d="M18.9156 20.6738L50.0708 57.8499C50.0708 57.8499 38.2022 64.803 24.6645 41.904C17.1539 29.2957 18.9156 20.6738 18.9156 20.6738Z" fill="#43AB35"/>
</g>
<defs>
<clipPath id="clip0_1005_2747">
<rect width="144" height="178" fill="white"/>
</clipPath>
</defs>
</svg>
