<svg width="218" height="721" viewBox="0 0 218 721" fill="none" xmlns="http://www.w3.org/2000/svg">
<path d="M115.616 376.361V303.876H52.7357V376.361C52.7357 400.19 43.4939 423.113 26.8225 440.238C10.2418 457.362 1 480.285 1 504.205V718.215H167.442V504.205C167.442 480.376 158.2 457.453 141.529 440.328C124.948 423.113 115.616 400.19 115.616 376.361Z" fill="white" stroke="black" stroke-width="2" stroke-miterlimit="10"/>
<path d="M106.012 313.028C102.388 313.39 98.7634 313.662 95.1392 313.753V363.948C95.1392 381.163 96.4076 397.925 102.478 414.325C102.931 415.503 103.384 416.68 103.837 417.768C107.099 416.409 110.361 415.14 113.623 413.872C108.186 400.19 105.559 385.422 105.559 370.381L106.012 313.028Z" fill="black"/>
<path d="M152.492 474.668C151.133 471.95 149.593 469.322 148.053 466.695C144.882 467.963 141.71 469.232 138.539 470.409C140.079 472.946 141.439 475.574 142.798 478.201C146.059 477.024 149.231 475.846 152.492 474.668Z" fill="black"/>
<path d="M154.033 476.842C150.771 478.201 147.509 479.651 144.338 481.101C145.063 484 145.697 486.9 146.241 489.89C147.872 499.131 147.69 508.464 147.69 517.796V715.225C147.69 721.93 158.201 722.021 158.201 715.225V562.555C158.201 544.343 158.291 526.132 158.201 507.92C158.019 497.5 156.66 486.99 154.033 476.842Z" fill="black"/>
<path d="M55.3633 315.202C59.8935 315.202 64.5144 315.202 69.0447 315.202C71.944 315.202 71.944 310.672 69.0447 310.672C64.5144 310.672 59.8935 310.672 55.3633 310.672C52.4639 310.672 52.4639 315.202 55.3633 315.202Z" fill="black"/>
<path d="M22.4735 559.837V485.178H43.494V593.542L22.4735 559.837Z" fill="white" stroke="black" stroke-width="2" stroke-miterlimit="10"/>
<path d="M133.465 484.091H125.583V591.911H133.465V484.091Z" fill="#71CBF4"/>
<path d="M62.793 678.62C61.2527 496.413 73.122 142.961 183.117 52.8992" stroke="black" stroke-width="2" stroke-miterlimit="10"/>
<path d="M102.387 147.854C112.988 171.864 106.555 197.959 106.555 197.959C106.555 197.959 82.9072 185.183 72.3064 161.173C61.7056 137.162 68.1385 111.068 68.1385 111.068C70.4943 110.524 91.7866 123.843 102.387 147.854Z" fill="white" stroke="black" stroke-width="2" stroke-miterlimit="10"/>
<path d="M190.909 51.1779C178.587 74.2823 154.123 85.3361 154.123 85.3361C154.123 85.3361 149.684 58.8794 162.006 35.6844C174.328 12.58 198.792 1.52612 198.792 1.52612C200.604 3.15702 203.231 28.0735 190.909 51.1779Z" fill="white" stroke="black" stroke-width="2" stroke-miterlimit="10"/>
<path d="M86.0784 220.429C96.6793 244.439 90.2463 270.534 90.2463 270.534C90.2463 270.534 66.5983 257.758 55.9974 233.748C45.3966 209.737 51.8296 183.643 51.8296 183.643C54.1853 183.099 75.4776 196.418 86.0784 220.429Z" fill="white" stroke="black" stroke-width="2" stroke-miterlimit="10"/>
<path d="M164.18 102.461C140.442 113.605 128.21 137.525 128.21 137.525C128.21 137.525 154.395 143.324 178.134 132.179C201.872 121.035 214.104 97.115 214.104 97.115C212.745 95.2122 187.919 91.3162 164.18 102.461Z" fill="white" stroke="black" stroke-width="2" stroke-miterlimit="10"/>
<path d="M144.61 163.981C120.871 175.126 108.639 199.046 108.639 199.046C108.639 199.046 134.824 204.844 158.563 193.7C182.301 182.556 194.533 158.636 194.533 158.636C193.084 156.733 168.348 152.837 144.61 163.981Z" fill="white" stroke="black" stroke-width="2" stroke-miterlimit="10"/>
<path d="M109.455 200.496C137.633 186.089 165.993 172.136 194.986 159.451C196.074 158.998 195.167 157.458 194.08 157.911C165.086 170.596 136.727 184.549 108.549 198.955C107.461 199.408 108.367 201.039 109.455 200.496Z" fill="black"/>
<path d="M128.844 138.34C157.023 123.934 185.382 109.981 214.376 97.2959C215.463 96.8428 214.557 95.3025 213.47 95.7556C184.476 108.44 156.116 122.394 127.938 136.8C126.851 137.253 127.757 138.884 128.844 138.34Z" fill="black"/>
<path d="M125.945 125.021C126.035 126.199 126.035 127.467 126.126 128.645C126.217 129.823 128.029 129.823 127.938 128.645C127.848 127.467 127.848 126.199 127.757 125.021C127.666 123.843 125.854 123.843 125.945 125.021Z" fill="black"/>
<path d="M126.126 125.927C125.129 126.833 124.948 128.283 125.582 129.461C126.126 130.457 127.757 129.551 127.123 128.555C126.851 128.102 126.942 127.558 127.395 127.196C128.301 126.38 127.032 125.112 126.126 125.927Z" fill="black"/>
<path d="M132.106 86.6952C137.814 112.246 126.489 136.619 126.489 136.619C126.489 136.619 105.831 119.494 100.122 93.853C94.4143 68.3023 105.74 43.9294 105.74 43.9294C108.096 43.9294 126.307 61.1445 132.106 86.6952Z" fill="white" stroke="black" stroke-width="2" stroke-miterlimit="10"/>
<path d="M106.827 45.1074C106.737 44.1108 106.646 43.1141 106.646 42.1175C106.012 42.2081 105.468 42.2987 104.834 42.3893C110.361 74.7354 117.79 106.719 127.032 138.159C127.395 139.246 129.116 138.793 128.754 137.706C119.421 106.266 112.082 74.2824 106.555 41.9362C106.374 40.9396 104.743 41.1208 104.743 42.2081C104.834 43.2047 104.924 44.2014 104.924 45.198C105.106 46.2853 106.918 46.2853 106.827 45.1074Z" fill="black"/>
<path d="M134.19 90.4098C133.737 90.2286 133.284 90.0474 132.921 89.7756C132.468 90.2286 132.015 90.6816 131.562 91.1347C131.019 91.7689 130.385 92.4031 129.841 93.0374C128.572 94.4871 127.304 96.0274 126.126 97.5676C123.77 100.648 121.596 103.819 119.602 107.172C118.968 108.168 120.599 109.075 121.143 108.078C123.589 103.91 126.307 100.014 129.478 96.2992C130.928 94.5777 134.462 92.1313 134.734 89.8662C134.734 89.5038 134.462 89.1413 134.099 88.9601C134.009 88.9601 133.918 88.8695 133.828 88.8695C133.465 88.7789 133.012 88.9601 132.831 89.3226C132.831 89.4132 132.74 89.5038 132.74 89.5038C132.106 90.5004 133.646 91.4065 134.19 90.4098Z" fill="black"/>
<path d="M135.821 91.9503C130.022 97.7491 124.677 103.91 119.874 110.524C119.15 111.431 120.781 112.337 121.415 111.431C126.126 104.907 131.381 98.8364 137.089 93.2188C137.996 92.4034 136.636 91.1349 135.821 91.9503Z" fill="black"/>
<path d="M122.955 116.686C124.677 113.514 127.123 111.159 129.75 108.803C131.019 107.716 132.287 106.628 133.556 105.451C134.371 104.726 137.633 101.011 138.902 101.102C140.079 101.192 140.079 99.38 138.902 99.2894C137.724 99.1988 137.089 99.9237 136.274 100.739C134.099 102.642 132.016 104.545 129.841 106.357C126.67 109.165 123.499 111.974 121.505 115.78C120.871 116.776 122.411 117.682 122.955 116.686Z" fill="black"/>
<path d="M123.77 118.951C127.576 113.696 132.106 109.165 137.452 105.541C138.448 104.907 137.542 103.276 136.546 104.001C130.928 107.806 126.126 112.518 122.139 118.045C121.505 118.951 123.136 119.857 123.77 118.951Z" fill="black"/>
<path d="M124.948 124.931C128.844 120.038 133.103 115.508 137.724 111.34C138.63 110.524 137.271 109.256 136.455 110.071C131.834 114.239 127.576 118.77 123.68 123.662C122.955 124.568 124.223 125.837 124.948 124.931Z" fill="black"/>
<path d="M125.311 125.927C127.395 123.481 129.66 121.125 132.015 118.951C131.562 118.588 131.109 118.226 130.566 117.863C128.754 121.125 127.032 124.478 125.22 127.739C125.764 128.011 126.307 128.193 126.851 128.464C127.757 126.109 128.663 123.753 129.569 121.397C129.026 121.216 128.391 121.035 127.848 120.944C126.851 124.115 126.126 127.286 125.764 130.548C125.673 131.454 127.123 131.817 127.485 131.001C128.663 128.193 129.66 125.293 130.203 122.213C130.475 121.035 128.663 120.582 128.482 121.76C127.666 125.565 126.851 129.461 126.036 133.266C126.67 133.357 127.213 133.448 127.848 133.538C127.938 133.085 127.938 132.632 128.029 132.179C128.482 131.092 126.67 130.639 126.307 131.726C125.945 132.723 125.945 132.542 126.036 133.538C126.126 134.444 127.576 134.807 127.848 133.81C128.663 130.005 129.479 126.109 130.294 122.303C129.75 122.122 129.116 121.941 128.572 121.85C128.029 124.75 127.123 127.468 126.036 130.186C126.579 130.367 127.123 130.458 127.757 130.639C128.119 127.468 128.844 124.478 129.75 121.488C130.113 120.4 128.391 119.947 128.029 121.035C127.213 123.39 126.307 125.746 125.311 128.102C124.948 129.099 126.489 129.733 126.942 128.827C128.754 125.565 130.475 122.213 132.287 118.951C132.74 118.045 131.653 117.139 130.838 117.863C128.482 120.038 126.217 122.394 124.133 124.84C123.317 125.565 124.586 126.833 125.311 125.927Z" fill="black"/>
<path d="M125.13 123.39C125.22 125.293 125.311 127.105 125.401 129.008C125.492 130.186 127.304 130.186 127.213 129.008C127.123 127.105 127.032 125.293 126.942 123.39C126.942 122.213 125.13 122.213 125.13 123.39Z" fill="black"/>
<path d="M111.448 69.0271C115.163 61.7787 119.965 55.2551 125.764 49.5469C126.579 48.7315 125.311 47.463 124.495 48.2785C118.515 54.0772 113.623 60.6914 109.908 68.1211C109.364 69.2083 110.904 70.1144 111.448 69.0271Z" fill="black"/>
<path d="M113.894 77.0911C117.791 70.4769 122.14 64.2251 127.123 58.4264C127.848 57.5203 126.579 56.2518 125.854 57.1579C120.78 63.1379 116.25 69.4802 112.354 76.185C111.811 77.1817 113.351 78.0877 113.894 77.0911Z" fill="black"/>
<path d="M132.106 86.6952C137.814 112.246 126.489 136.619 126.489 136.619C126.489 136.619 105.831 119.494 100.122 93.853C94.4143 68.3023 105.74 43.9294 105.74 43.9294C108.096 43.9294 126.307 61.1445 132.106 86.6952Z" stroke="black" stroke-width="2" stroke-miterlimit="10"/>
<path d="M127.938 235.288C104.2 246.433 91.9679 270.352 91.9679 270.352C91.9679 270.352 118.153 276.151 141.891 265.007C165.63 253.862 177.862 229.942 177.862 229.942C176.503 228.04 151.677 224.144 127.938 235.288Z" fill="white" stroke="black" stroke-width="2" stroke-miterlimit="10"/>
<path d="M94.4142 270.443C121.052 255.765 148.506 242.808 176.684 231.483C177.771 231.03 177.318 229.308 176.231 229.761C147.871 241.087 120.237 254.134 93.5082 268.903C92.5115 269.446 93.4176 271.077 94.4142 270.443Z" fill="black"/>
<path d="M98.7633 265.822C99.3975 261.654 100.485 257.668 102.297 253.862C102.75 252.775 101.21 251.869 100.757 252.956C98.9445 256.943 97.676 261.02 97.0418 265.278C96.8606 266.456 98.5821 267 98.7633 265.822Z" fill="black"/>
<path d="M102.75 264.01C104.018 259.48 105.74 255.131 108.186 251.053C108.73 250.057 107.19 249.151 106.646 250.147C104.2 254.406 102.387 258.845 101.028 263.557C100.757 264.644 102.478 265.097 102.75 264.01Z" fill="black"/>
<path d="M108.186 263.738C110.089 256.037 112.626 248.517 115.616 241.087C116.069 240 114.347 239.547 113.894 240.634C110.814 247.973 108.367 255.493 106.465 263.285C106.102 264.372 107.824 264.916 108.186 263.738Z" fill="black"/>
<path d="M111.72 259.842C113.622 252.141 116.25 244.711 119.784 237.553C120.327 236.466 118.696 235.56 118.243 236.647C114.71 243.986 111.992 251.506 109.998 259.389C109.636 260.567 111.448 261.02 111.72 259.842Z" fill="black"/>
<path d="M115.253 257.758C116.884 250.872 119.059 244.167 121.777 237.553C122.23 236.466 120.509 236.013 120.056 237.1C117.337 243.624 115.163 250.419 113.532 257.305C113.26 258.392 114.982 258.845 115.253 257.758Z" fill="black"/>
<path d="M148.868 242.808C150.952 235.379 154.214 228.674 158.653 222.332C159.288 221.335 157.747 220.429 157.113 221.426C152.583 227.859 149.321 234.835 147.147 242.265C146.784 243.443 148.506 243.896 148.868 242.808Z" fill="black"/>
<path d="M155.482 238.822C155.935 236.104 158.291 232.932 159.65 230.577C161.281 227.858 163.002 225.231 164.905 222.694C165.63 221.788 163.999 220.882 163.365 221.788C161.281 224.597 159.288 227.587 157.566 230.667C156.298 232.842 154.214 235.832 153.851 238.369C153.489 239.456 155.21 239.909 155.482 238.822Z" fill="black"/>
<path d="M159.741 237.825C161.734 233.295 164.18 228.946 166.989 224.868C167.623 223.872 166.083 222.966 165.449 223.962C162.64 228.04 160.194 232.389 158.2 236.919C157.657 238.006 159.288 238.912 159.741 237.825Z" fill="black"/>
<path d="M127.938 235.288C104.2 246.432 91.9679 270.352 91.9679 270.352C91.9679 270.352 118.153 276.151 141.891 265.006C165.63 253.862 177.862 229.942 177.862 229.942C176.503 228.039 151.677 224.143 127.938 235.288Z" stroke="black" stroke-width="2" stroke-miterlimit="10"/>
<path d="M106.555 197.868C106.555 197.868 82.9072 185.093 72.3064 161.082C61.7056 137.072 68.1385 110.978 68.1385 110.978" fill="black"/>
<path d="M106.555 197.868C106.555 197.868 82.9072 185.093 72.3064 161.082C61.7056 137.072 68.1385 110.978 68.1385 110.978" stroke="black" stroke-width="2" stroke-miterlimit="10"/>
<path d="M90.2463 270.443C90.2463 270.443 66.5983 257.667 55.9974 233.657C45.3966 209.647 51.8296 183.552 51.8296 183.552" fill="black"/>
<path d="M90.2463 270.443C90.2463 270.443 66.5983 257.667 55.9974 233.657C45.3966 209.647 51.8296 183.552 51.8296 183.552" stroke="black" stroke-width="2" stroke-miterlimit="10"/>
<path d="M154.033 85.4267C154.033 85.4267 149.593 58.9699 161.915 35.7749C174.238 12.6706 198.701 1.6167 198.701 1.6167" fill="black"/>
<path d="M154.033 85.4267C154.033 85.4267 149.593 58.9699 161.915 35.7749C174.238 12.6706 198.701 1.6167 198.701 1.6167" stroke="black" stroke-width="2" stroke-miterlimit="10"/>
<path d="M105.649 43.9294C105.649 43.9294 94.3236 68.3023 100.032 93.853C105.74 119.404 126.398 136.619 126.398 136.619" fill="black"/>
<path d="M105.649 43.9294C105.649 43.9294 94.3236 68.3023 100.032 93.853C105.74 119.404 126.398 136.619 126.398 136.619" stroke="black" stroke-width="2" stroke-miterlimit="10"/>
<g style="mix-blend-mode:multiply">
<path d="M106.284 152.837C116.884 176.847 110.451 202.942 110.451 202.942C110.451 202.942 86.8035 190.166 76.2026 166.156C65.6018 142.146 72.0348 116.051 72.0348 116.051C74.3905 115.598 95.6828 128.917 106.284 152.837Z" fill="#A3CB72"/>
<path d="M194.805 56.2516C182.483 79.356 158.019 90.4099 158.019 90.4099C158.019 90.4099 153.58 63.9531 165.902 40.7581C178.224 17.6537 202.688 6.59985 202.688 6.59985C204.5 8.14015 207.127 33.1472 194.805 56.2516Z" fill="#A3CB72"/>
<path d="M89.9745 225.412C100.575 249.423 94.1424 275.517 94.1424 275.517C94.1424 275.517 70.4944 262.742 59.8935 238.731C49.2927 214.721 55.7257 188.626 55.7257 188.626C58.0814 188.173 79.3737 201.402 89.9745 225.412Z" fill="#A3CB72"/>
<path d="M168.077 107.534C144.338 118.679 132.106 142.599 132.106 142.599C132.106 142.599 158.291 148.397 182.03 137.253C205.768 126.109 218 102.189 218 102.189C216.641 100.286 191.815 96.3899 168.077 107.534Z" fill="#A3CB72"/>
<path d="M148.506 169.055C124.767 180.2 112.535 204.12 112.535 204.12C112.535 204.12 138.72 209.918 162.459 198.774C186.198 187.63 198.429 163.71 198.429 163.71C197.07 161.807 172.244 157.911 148.506 169.055Z" fill="#A3CB72"/>
<path d="M112.898 204.754C139.717 191.073 170.795 175.76 198.429 163.71L112.898 204.754Z" fill="#A3CB72"/>
<path d="M132.287 142.599C159.107 128.918 190.184 113.605 217.819 101.555L132.287 142.599Z" fill="#A3CB72"/>
<path d="M130.747 130.005C130.838 131.183 130.838 132.451 130.928 133.629L130.747 130.005Z" fill="#A3CB72"/>
<path d="M130.747 131.545C130.022 132.089 129.932 133.176 130.385 133.991L130.747 131.545Z" fill="#A3CB72"/>
<path d="M136.002 91.769C141.71 117.32 130.385 141.693 130.385 141.693C130.385 141.693 109.727 124.568 104.019 98.9269C98.3104 73.3761 109.636 49.0033 109.636 49.0033C111.992 48.9127 130.203 66.1277 136.002 91.769Z" fill="#A3CB72"/>
<path d="M136.002 91.769C141.71 117.32 130.385 141.693 130.385 141.693C130.385 141.693 109.727 124.568 104.019 98.9269C98.3104 73.3761 109.636 49.0033 109.636 49.0033C111.992 48.9127 130.203 66.1277 136.002 91.769Z" fill="#A3CB72"/>
<path d="M109.817 50.1811C109.727 49.1845 109.636 48.1878 109.636 47.1912C115.072 79.5373 122.502 111.521 131.834 142.961" fill="#A3CB72"/>
<path d="M137.271 94.9402C137.089 94.7589 137.543 94.5777 137.633 94.8495C137.724 95.0308 137.543 95.3026 137.361 95.4838C132.287 100.648 127.848 106.447 124.224 112.699" fill="#A3CB72"/>
<path d="M140.351 97.5679C134.553 103.276 129.297 109.437 124.495 115.961L140.351 97.5679Z" fill="#A3CB72"/>
<path d="M126.126 121.216C127.848 117.682 130.928 115.055 133.828 112.427C136.455 110.071 139.083 107.806 141.801 105.451C142.073 105.179 142.526 104.907 142.798 105.179" fill="#A3CB72"/>
<path d="M126.942 123.481C130.747 118.045 135.549 113.424 140.985 109.709L126.942 123.481Z" fill="#A3CB72"/>
<path d="M128.21 129.37C132.106 124.478 136.365 119.947 140.985 115.78L128.21 129.37Z" fill="#A3CB72"/>
<path d="M128.663 130.367C130.747 127.921 133.012 125.565 135.368 123.39C133.556 126.652 131.834 130.005 130.022 133.266C131.019 130.911 131.834 128.555 132.74 126.199C131.744 129.28 131.019 132.36 130.657 135.622C131.834 132.904 132.74 130.005 133.284 127.105C132.469 130.911 131.653 134.807 130.838 138.612C130.657 138.068 130.747 137.525 131.019 136.981" fill="#A3CB72"/>
<path d="M130.022 128.464C130.113 130.367 130.204 132.179 130.294 134.082L130.022 128.464Z" fill="#A3CB72"/>
<path d="M114.529 73.6479C118.153 66.3089 123.046 59.6041 129.026 53.9866L114.529 73.6479Z" fill="#A3CB72"/>
<path d="M117.066 81.6213C120.962 74.9165 125.401 68.5741 130.475 62.7754L117.066 81.6213Z" fill="#A3CB72"/>
<path d="M136.002 91.769C141.71 117.32 130.385 141.693 130.385 141.693C130.385 141.693 109.727 124.568 104.019 98.9269C98.3104 73.3761 109.636 49.0033 109.636 49.0033C111.992 48.9127 130.203 66.1277 136.002 91.769Z" fill="#A3CB72"/>
<path d="M131.834 240.362C108.096 251.506 95.864 275.426 95.864 275.426C95.864 275.426 122.049 281.225 145.788 270.08C169.526 258.936 181.758 235.016 181.758 235.016C180.399 233.023 155.573 229.127 131.834 240.362Z" fill="#A3CB72"/>
<path d="M131.834 240.362C108.096 251.506 95.864 275.426 95.864 275.426C95.864 275.426 122.049 281.225 145.788 270.08C169.526 258.936 181.758 235.016 181.758 235.016C180.399 233.023 155.573 229.127 131.834 240.362Z" fill="#A3CB72"/>
<path d="M97.8572 274.702C124.495 259.933 152.13 246.886 180.399 235.651L97.8572 274.702Z" fill="#A3CB72"/>
<path d="M101.753 270.624C102.297 266.456 103.565 262.289 105.378 258.483L101.753 270.624Z" fill="#A3CB72"/>
<path d="M105.831 268.812C107.008 264.191 108.911 259.752 111.358 255.584L105.831 268.812Z" fill="#A3CB72"/>
<path d="M111.176 268.54C113.079 260.839 115.525 253.228 118.606 245.889L111.176 268.54Z" fill="#A3CB72"/>
<path d="M114.71 264.644C116.522 256.852 119.331 249.241 122.864 242.083L114.71 264.644Z" fill="#A3CB72"/>
<path d="M118.334 262.56C119.965 255.674 122.14 248.879 124.858 242.355L118.334 262.56Z" fill="#A3CB72"/>
<path d="M151.858 247.61C153.851 240.181 157.204 233.204 161.734 226.952L151.858 247.61Z" fill="#A3CB72"/>
<path d="M158.472 243.624C158.472 243.624 158.472 243.533 158.472 243.624C160.919 237.825 164.18 232.298 167.986 227.224" fill="#A3CB72"/>
<path d="M162.821 242.446C164.815 237.916 167.261 233.567 170.07 229.489L162.821 242.446Z" fill="#A3CB72"/>
<path d="M131.834 240.362C108.096 251.507 95.864 275.426 95.864 275.426C95.864 275.426 122.049 281.225 145.788 270.081C169.526 258.936 181.758 235.016 181.758 235.016C180.399 233.023 155.573 229.127 131.834 240.362Z" fill="#A3CB72"/>
<path d="M110.542 202.942C110.542 202.942 86.8939 190.167 76.2931 166.156C65.6922 142.146 72.1252 116.052 72.1252 116.052" fill="#A3CB72"/>
<path d="M94.1424 275.517C94.1424 275.517 70.4944 262.741 59.8935 238.731C49.2927 214.721 55.7257 188.626 55.7257 188.626" fill="#A3CB72"/>
<path d="M158.019 90.4099C158.019 90.4099 153.58 63.9531 165.902 40.7581C178.224 17.6537 202.688 6.59985 202.688 6.59985" fill="#A3CB72"/>
</g>
</svg>
