<svg width="390" height="635" viewBox="0 0 390 635" fill="none" xmlns="http://www.w3.org/2000/svg">
<path d="M47.558 621.056L2.07031 434.242H212.63L169.621 617.241" stroke="black" stroke-width="2" stroke-miterlimit="10"/>
<path d="M184.498 619.53C183.83 622.677 182.209 625.442 180.874 628.303C180.683 628.685 179.73 630.592 179.73 631.069C179.92 629.543 178.585 634.216 179.92 633.071C179.73 633.262 178.681 633.071 178.395 633.071C175.534 633.453 172.482 633.071 169.621 633.071C158.083 633.071 146.448 633.071 134.91 632.976C107.827 632.976 80.6486 632.881 53.5657 632.881C49.5605 632.881 45.5553 632.881 41.5501 632.881C40.7872 632.881 39.6429 633.071 38.9754 632.881C38.3078 632.69 37.6403 631.641 37.1635 631.069C34.3026 627.636 32.0139 624.393 30.3928 620.102C30.1067 620.484 29.8206 620.865 29.4392 621.342C75.0222 621.151 120.701 620.96 166.284 620.77C172.673 620.77 179.158 620.674 185.547 620.674C186.787 620.674 186.787 618.767 185.547 618.767C139.964 618.958 94.2853 619.149 48.7023 619.339C42.313 619.339 35.8284 619.435 29.4392 619.435C28.867 619.435 28.2948 620.007 28.4855 620.674C30.202 625.061 34.0165 633.739 39.1661 634.788C41.264 635.265 43.9342 634.788 46.0321 634.788C56.522 634.788 67.0118 634.788 77.5016 634.883C104.966 634.883 132.335 634.979 159.799 634.979C166.474 634.979 173.245 634.979 179.92 634.979C180.302 634.979 180.779 634.693 180.874 634.311C181.923 629.257 185.261 625.061 186.405 620.007C186.596 618.767 184.689 618.29 184.498 619.53Z" fill="black"/>
<path d="M114.216 178.29C114.216 178.29 36.0191 316.47 50.228 431.953" stroke="black" stroke-width="2" stroke-miterlimit="10"/>
<path d="M110.02 180.102C110.02 180.102 24.2896 315.706 32.2047 431.571" stroke="black" stroke-width="2" stroke-miterlimit="10"/>
<path d="M318.862 108.77C318.768 108.77 318.768 108.676 318.862 108.77C318.768 108.77 318.862 108.865 318.862 108.77Z" fill="black"/>
<path d="M379.322 218.533C379.322 218.533 248.676 201.082 249.63 181.914C250.584 162.746 380.181 195.551 380.276 196.6C380.467 197.649 359.487 155.975 338.793 139.764C318.005 123.552 253.444 141.766 253.444 141.766C253.444 141.766 202.616 155.212 210.341 126.127C217.97 97.6138 314.381 102.859 317.909 105.147C316.574 102.477 309.994 77.6831 280.337 55.4637C249.249 32.1 194.606 85.5028 180.492 101.428C166.284 117.354 161.039 118.498 177.155 81.9744C193.271 45.26 252.491 34.3887 252.491 34.3887C252.491 34.3887 238.568 15.3163 205.191 7.68735C171.815 0.153748 144.922 86.6471 144.922 86.6471C144.922 86.6471 135.958 87.0286 140.631 56.2266C145.304 25.4247 184.402 3.20533 184.402 3.20533C184.402 3.20533 140.44 -1.94422 121.94 15.8885C103.44 33.7212 114.025 84.1677 114.025 84.1677C114.025 84.1677 111.736 83.0234 105.156 73.3918C98.5765 63.7602 108.208 24.7572 108.208 24.7572C86.2748 42.3991 54.996 97.7091 80.7438 110.488C106.492 123.266 115.742 141.671 115.742 141.671C179.348 182.772 315.144 256.582 383.9 300.735C396.678 280.137 379.322 218.533 379.322 218.533Z" fill="black"/>
<path d="M235.612 260.11C241.62 260.301 283.865 335.351 298.455 341.454C313.046 347.557 383.709 300.83 383.709 300.83L115.646 141.671C113.644 142.529 27.4364 120.214 8.17329 162.65C-11.1852 205.087 28.5808 278.325 28.5808 278.325C28.5808 278.325 68.8235 182.963 78.6458 193.738C88.4681 204.514 53.2795 246.95 53.1842 271.935C53.0888 307.41 69.3957 326.864 92.2826 333.73C115.17 340.691 127.28 335.256 127.28 335.256C127.28 335.256 93.1409 300.735 96.4785 269.361C99.9116 237.986 109.162 199.651 118.889 206.517C128.616 213.288 106.396 278.897 113.548 301.593C120.701 324.289 130.046 356.235 162.564 364.532C195.083 372.828 216.539 358.047 216.539 358.047C216.539 358.047 178.108 323.335 163.041 287.193C147.974 251.051 143.778 213.288 163.137 218.342C182.495 223.301 181.351 272.031 181.923 274.701C182.59 277.276 187.549 362.434 236.851 365.295C286.154 368.156 297.692 347.462 297.692 347.462C297.692 347.462 264.125 359.096 243.527 310.843C223.119 262.59 229.604 259.92 235.612 260.11ZM213.965 239.417C214.823 251.719 212.153 262.018 208.052 262.304C203.952 262.59 199.946 252.863 199.088 240.561C198.23 228.26 200.9 217.96 205.001 217.674C209.101 217.388 213.106 227.115 213.965 239.417Z" fill="black"/>
<path d="M317.909 105.051C317.909 104.957 317.909 104.957 317.909 105.051V105.051Z" fill="white" stroke="black" stroke-width="2" stroke-miterlimit="10"/>
<path d="M378.369 214.718C378.369 214.718 247.723 197.267 248.677 178.099C249.63 158.932 380.085 195.455 380.276 196.504C380.467 197.553 358.629 152.161 337.84 135.854C317.051 119.642 252.491 137.857 252.491 137.857C252.491 137.857 201.663 151.303 209.387 122.217C217.016 93.7039 314.476 102.573 318.005 104.861C316.67 102.191 309.041 73.7732 279.383 51.5539C248.295 28.1902 193.653 81.5929 179.539 97.5184C165.33 113.444 160.085 114.588 176.201 78.0645C192.318 41.5408 252.491 34.3887 252.491 34.3887C252.491 34.3887 237.615 11.5018 204.238 3.96819C170.861 -3.56541 143.969 82.928 143.969 82.928C143.969 82.928 135.005 83.3094 139.678 52.5075C144.35 21.7055 184.307 3.2053 184.307 3.2053C184.307 3.2053 139.392 -5.66338 120.987 12.1693C102.486 30.002 113.072 80.4486 113.072 80.4486C113.072 80.4486 110.783 79.3042 104.203 69.6726C97.623 60.0411 107.255 21.038 107.255 21.038C85.3213 38.68 54.0426 93.99 79.7903 106.768C105.538 119.547 114.788 137.952 114.788 137.952C178.395 179.053 315.049 256.678 383.805 300.735C396.678 280.137 378.369 214.718 378.369 214.718Z" fill="white" stroke="black" stroke-width="2" stroke-miterlimit="10"/>
<path d="M234.754 256.392C240.761 256.582 283.007 331.632 297.597 337.736C312.188 343.839 383.805 300.83 383.805 300.83L114.693 137.952C112.69 138.81 26.4829 116.496 7.21977 158.932C-12.1387 201.368 28.5809 278.325 28.5809 278.325C28.5809 278.325 68.7283 177.146 78.5506 188.017C88.3729 198.793 49.2744 243.422 52.326 268.217C55.3776 293.011 73.8778 321.333 96.8601 328.199C119.747 335.161 127.471 335.351 127.471 335.351C127.471 335.351 92.3781 297.111 95.8111 265.737C99.2441 234.363 108.113 194.311 117.744 201.177C127.471 207.948 105.633 275.273 112.881 297.97C120.033 320.666 128.425 350.037 160.943 358.334C193.462 366.63 216.73 358.143 216.73 358.143C216.73 358.143 177.346 319.712 162.278 283.57C147.211 247.428 143.397 207.471 162.851 212.525C182.209 217.484 180.588 268.407 181.255 271.077C181.923 273.652 186.882 358.811 236.184 361.671C285.486 364.532 297.883 347.558 297.883 347.558C297.883 347.558 263.458 355.378 242.859 307.22C222.166 258.871 228.746 256.201 234.754 256.392ZM213.011 235.698C213.869 248 211.199 258.299 207.099 258.585C202.998 258.871 198.993 249.144 198.135 236.842C197.276 224.541 199.946 214.242 204.047 213.956C208.148 213.574 212.153 223.301 213.011 235.698Z" fill="white" stroke="black" stroke-width="2" stroke-miterlimit="10"/>
<path d="M173.722 173.808C175.725 150.921 184.403 126.699 199.374 109.057C214.346 91.5107 237.615 84.4539 253.349 67.7655C254.208 66.9073 252.872 65.4768 252.014 66.4304C235.326 84.1678 210.436 91.4153 195.369 110.965C181.732 128.702 173.722 151.684 171.815 173.808C171.719 175.048 173.627 174.952 173.722 173.808Z" fill="black"/>
<path d="M250.107 66.8115C229.699 86.17 200.137 95.3248 184.212 119.547C177.155 130.227 171.91 142.91 169.812 155.594C169.431 158.168 169.049 160.743 169.049 163.318C169.049 164.939 168.572 168.372 169.431 169.898C169.812 170.565 170.098 170.947 170.956 171.042C171.433 171.042 171.815 170.661 172.196 170.47C173.436 169.707 172.482 169.612 172.482 169.612C172.482 170.852 174.389 170.852 174.389 169.612C174.389 168.849 174.485 167.895 173.627 167.609C172.768 167.323 172.387 168.277 171.815 168.181C170.956 168.086 171.147 168.277 170.861 166.656C170.67 165.321 170.766 163.89 170.861 162.555C170.956 159.503 171.433 156.356 172.005 153.4C174.485 140.908 179.825 128.606 187.168 118.307C203.189 95.8016 231.702 86.7422 251.347 68.1466C252.3 67.3837 250.965 65.9533 250.107 66.8115Z" fill="black"/>
<path d="M206.908 191.068C221.594 154.449 264.507 151.588 298.551 151.112C303.51 151.016 309.136 151.493 313.904 149.967C315.048 149.586 314.572 147.774 313.427 148.155C308.945 149.586 303.605 149.204 298.932 149.3C291.017 149.395 283.198 149.491 275.378 150.158C257.45 151.588 238.663 155.212 223.882 166.084C215.3 172.377 209.101 180.865 205.096 190.687C204.619 191.641 206.526 192.213 206.908 191.068Z" fill="black"/>
<path d="M204.429 188.494C206.145 166.751 228.746 155.88 247.628 152.256C269.752 148.06 293.306 148.346 315.716 150.063C316.956 150.158 316.956 148.251 315.716 148.155C302.651 147.202 289.491 146.916 276.331 147.488C264.316 148.06 252.11 148.823 240.475 151.875C222.833 156.452 204.047 168.563 202.521 188.398C202.426 189.733 204.333 189.733 204.429 188.494Z" fill="black"/>
<path d="M254.112 215.672C286.058 237.796 332.5 234.84 358.82 265.642C359.201 265.165 359.583 264.688 359.964 264.116C347.662 254.866 333.358 248.476 318.291 245.52C309.899 243.899 301.126 244.185 292.924 241.706C284.437 239.131 277.571 233.314 271.087 227.592C270.133 226.829 268.798 228.164 269.751 228.927C275.664 234.077 281.862 239.417 289.205 242.373C296.834 245.425 305.035 245.329 313.046 246.474C329.734 248.953 345.564 255.533 359.01 265.642C359.964 266.309 360.822 264.879 360.155 264.116C333.644 233.123 287.107 236.079 255.066 213.86C254.112 213.288 253.158 215.004 254.112 215.672Z" fill="black"/>
<path d="M132.621 146.058C110.497 140.145 83.2233 138.619 62.0529 148.823C51.7538 153.782 45.5552 162.555 39.9289 172.091C34.0164 182.2 29.153 193.262 30.202 205.182C30.2973 206.422 31.9185 206.422 32.1092 205.182C34.8747 184.393 47.9393 165.321 66.7256 155.784C77.1201 150.54 88.5635 149.014 100.102 149.777C111.927 150.54 124.229 152.542 135.672 155.403C136.817 155.689 137.389 153.877 136.149 153.591C113.262 147.869 86.2748 143.197 64.5323 154.831C45.6506 164.939 32.9675 184.202 30.202 205.277C30.8695 205.277 31.4417 205.277 32.1092 205.277C31.0602 193.643 35.8283 182.963 41.6454 173.14C47.4625 163.318 53.7564 154.64 64.5323 149.872C85.0351 140.813 111.069 142.243 132.239 147.965C133.288 148.251 133.765 146.439 132.621 146.058Z" fill="black"/>
<path d="M145.304 158.073C145.876 145.009 145.972 131.944 146.735 118.975C147.497 106.101 147.879 90.8431 154.173 79.2089C153.601 78.9228 153.028 78.7321 152.456 78.446C143.015 101.047 138.343 125.364 139.01 149.872C139.01 151.112 140.917 151.112 140.917 149.872C140.25 125.459 144.923 101.428 154.268 78.9228C154.65 77.8738 153.028 77.2063 152.552 78.1599C146.639 89.1265 145.972 103.145 145.113 115.256C144.064 129.465 144.064 143.674 143.492 157.978C143.397 159.313 145.304 159.313 145.304 158.073Z" fill="black"/>
<path d="M111.45 137.57C111.45 137.57 139.582 165.035 168.286 180.674C196.99 196.313 383.709 300.83 383.709 300.83L231.607 201.177C197.562 178.862 161.897 158.741 124.897 140.908L110.592 134.042" fill="white"/>
<path d="M111.45 137.57C111.45 137.57 139.582 165.035 168.286 180.674C196.99 196.313 383.709 300.83 383.709 300.83L231.607 201.177C197.562 178.862 161.897 158.741 124.897 140.908L110.592 134.042" stroke="black" stroke-width="2" stroke-miterlimit="10"/>
<path d="M158.941 176.669C144.35 187.445 135.005 204.038 134.719 222.347C135.291 222.156 135.768 221.87 136.34 221.68C132.907 219.009 136.531 210.618 137.484 207.185C138.533 203.37 139.487 199.556 140.727 195.836C143.683 186.3 149.881 179.816 159.132 176.192C160.276 175.715 159.799 173.903 158.655 174.38C148.737 178.29 142.157 185.156 138.915 195.36C137.008 201.463 135.291 207.661 133.861 213.86C133.098 217.102 132.049 220.726 135.1 223.015C135.768 223.491 136.721 223.205 136.721 222.347C136.912 204.8 145.972 188.684 159.99 178.385C160.943 177.622 159.99 175.906 158.941 176.669Z" fill="black"/>
<path d="M42.79 447.783C62.9114 448.355 83.0328 448.26 103.25 447.497C104.775 447.402 104.775 445.018 103.25 445.113C83.1281 445.876 63.0067 445.971 42.79 445.399C41.2642 445.304 41.2642 447.688 42.79 447.783Z" fill="black"/>
<path d="M169.621 617.242L205.954 434.146L212.63 434.242L186.214 546.769" fill="black"/>
<g style="mix-blend-mode:multiply">
<path d="M360.632 208.138C360.632 208.138 237.424 191.641 238.378 173.617C239.331 155.594 362.348 190.02 362.444 190.973C362.634 191.927 342.036 149.109 322.391 133.851C302.842 118.593 241.906 135.759 241.906 135.759C241.906 135.759 194.034 148.442 201.282 121.073C208.434 94.1807 300.363 102.573 303.701 104.671C302.365 102.191 295.213 75.3944 267.272 54.4147C237.901 32.3861 186.501 82.7372 173.055 97.7091C159.704 112.681 154.745 113.73 169.908 79.3042C185.165 44.8785 241.811 38.1078 241.811 38.1078C241.811 38.1078 227.792 16.556 196.323 9.40383C164.853 2.25168 139.487 83.8816 139.487 83.8816C139.487 83.8816 131 84.1677 135.386 55.1776C139.773 26.1876 177.441 8.64093 177.441 8.64093C177.441 8.64093 135.1 0.249073 117.745 17.0328C100.293 33.9119 110.306 81.4022 110.306 81.4022C110.306 81.4022 108.113 80.2578 101.914 71.1984C95.7159 62.139 104.775 25.3293 104.775 25.3293C84.2724 42.113 54.7102 94.2761 79.0275 106.292C103.345 118.403 112.023 135.759 112.023 135.759C172.006 174.476 300.935 247.714 365.686 289.291C377.892 269.838 360.632 208.138 360.632 208.138Z" fill="#43AB35"/>
</g>
</svg>
