<svg width="46" height="36" viewBox="0 0 46 36" fill="none" xmlns="http://www.w3.org/2000/svg">
<path d="M45.35 0V0.999999C44.35 1.03333 43.5833 1.16667 43.05 1.4C42.55 1.6 42.2167 2 42.05 2.6C41.8833 3.16666 41.8 4.06666 41.8 5.3V30.1C41.8 31.3 41.8833 32.2 42.05 32.8C42.25 33.4 42.6 33.8 43.1 34C43.6 34.2 44.35 34.3333 45.35 34.4V35.4C44.3167 35.3333 43 35.3 41.4 35.3C39.8 35.2667 38.1667 35.25 36.5 35.25C34.7 35.25 33 35.2667 31.4 35.3C29.8333 35.3 28.5667 35.3333 27.6 35.4V34.4C28.7333 34.3333 29.5833 34.2 30.15 34C30.75 33.8 31.15 33.4 31.35 32.8C31.55 32.2 31.65 31.3 31.65 30.1V3.35L32.15 3.25L19.6 35.35H18.8L4.7 3.25V25.6C4.7 27.8333 4.78333 29.55 4.95 30.75C5.15 31.9167 5.6 32.7667 6.3 33.3C7.03333 33.8 8.18333 34.1667 9.75 34.4V35.4C9.08333 35.3333 8.21667 35.3 7.15 35.3C6.08333 35.2667 5.08333 35.25 4.15 35.25C3.41667 35.25 2.66667 35.2667 1.9 35.3C1.13333 35.3 0.5 35.3333 0 35.4V34.4C1.03333 34.1667 1.8 33.8167 2.3 33.35C2.8 32.85 3.13333 32.0667 3.3 31C3.46667 29.9333 3.55 28.4667 3.55 26.6V5.3C3.55 4.06666 3.46667 3.16666 3.3 2.6C3.13333 2 2.78333 1.6 2.25 1.4C1.75 1.16667 1 1.03333 0 0.999999V0C0.5 0.0333329 1.13333 0.0666658 1.9 0.0999987C2.66667 0.133332 3.41667 0.149998 4.15 0.149998C6.08333 0.149998 7.93333 0.133332 9.7 0.0999987C11.4667 0.0666658 13.0667 0.0333329 14.5 0L24.4 22.3L22.9 23.95L32.15 0.149998C32.8167 0.149998 33.5333 0.149998 34.3 0.149998C35.0667 0.149998 35.8 0.149998 36.5 0.149998C38.1667 0.149998 39.8 0.133332 41.4 0.0999987C43 0.0666658 44.3167 0.0333329 45.35 0Z" fill="black"/>
</svg>
