<svg width="41" height="39" viewBox="0 0 41 39" fill="none" xmlns="http://www.w3.org/2000/svg">
<path d="M11.1066 20.9849V20.3064C11.1066 18.61 11.7286 16.9135 12.9161 15.726C14.3298 14.2558 15.1214 12.2201 14.8952 9.95821C14.4994 6.73502 11.8982 4.13384 8.67502 3.79455C4.43397 3.34218 0.814941 6.62192 0.814941 10.8064C0.814941 12.729 1.55006 14.4255 2.7941 15.6695C3.98159 16.9135 4.66016 18.5534 4.66016 20.3064V20.9849C4.66016 22.6814 4.03814 24.3778 2.85065 25.5653C1.43696 27.0355 0.645298 29.0712 0.871488 31.3331C1.26732 34.5563 3.8685 37.1575 7.0917 37.4968C11.3327 37.9492 14.9518 34.6694 14.9518 30.4849C14.9518 28.5623 14.2167 26.8659 12.9726 25.6218C11.7851 24.3778 11.1066 22.6814 11.1066 20.9849Z" stroke="white" stroke-miterlimit="10"/>
<path d="M31.633 26.979L31.9157 26.6962C32.7074 25.9046 33.7818 25.3956 34.9128 25.3956C36.2699 25.3956 37.627 24.7736 38.5318 23.5861C39.8889 21.8897 39.8889 19.4582 38.5318 17.7618C36.7788 15.5564 33.4991 15.3868 31.5199 17.3659C30.6152 18.2707 30.1628 19.4016 30.1628 20.5891C30.1628 21.7201 29.6539 22.851 28.8622 23.6427L28.5795 23.9254C27.7878 24.7171 26.7134 25.226 25.5824 25.226C24.2253 25.226 22.8682 25.848 21.9634 27.0355C20.6063 28.7319 20.6063 31.1635 21.9634 32.8599C23.7164 35.0652 26.9961 35.2349 28.9753 33.2557C29.88 32.351 30.3324 31.22 30.3324 30.0325C30.3324 28.845 30.8413 27.7706 31.633 26.979Z" stroke="white" stroke-miterlimit="10"/>
<path d="M21.7937 2.21127V9.39279H28.9752" stroke="white" stroke-miterlimit="10"/>
<path d="M21.7937 9.39277L30.6716 0.571381" stroke="white" stroke-miterlimit="10"/>
</svg>
