<svg width="45" height="29" viewBox="0 0 45 29" fill="none" xmlns="http://www.w3.org/2000/svg">
<path d="M14.485 28.3122C22.1364 28.3122 28.3391 22.1095 28.3391 14.4581C28.3391 6.80667 22.1364 0.603973 14.485 0.603973C6.83355 0.603973 0.630859 6.80667 0.630859 14.4581C0.630859 22.1095 6.83355 28.3122 14.485 28.3122Z" stroke="white" stroke-miterlimit="10"/>
<path d="M30.4313 28.3122C38.0827 28.3122 44.2854 22.1095 44.2854 14.458C44.2854 6.80664 38.0827 0.603943 30.4313 0.603943C22.7798 0.603943 16.5771 6.80664 16.5771 14.458C16.5771 22.1095 22.7798 28.3122 30.4313 28.3122Z" stroke="white" stroke-miterlimit="10"/>
<path d="M16.6338 13.6098L24.607 5.63663" stroke="white" stroke-miterlimit="10"/>
<path d="M17.0859 19.1515L27.0383 9.19913" stroke="white" stroke-miterlimit="10"/>
<path d="M19.1787 23.336L28.2828 14.1754" stroke="white" stroke-miterlimit="10"/>
</svg>
