<svg width="54" height="54" viewBox="0 0 54 54" fill="none" xmlns="http://www.w3.org/2000/svg">
<path d="M27.0434 10.6956H17.6521L12.9564 18.7826L17.6521 26.9565H27.0434L31.739 18.7826L27.0434 10.6956Z" stroke="white" stroke-miterlimit="10"/>
<path d="M26.9566 26.9565H17.5653L12.8696 35.1304L17.5653 43.2174H26.9566L31.6522 35.1304L26.9566 26.9565Z" stroke="white" stroke-miterlimit="10"/>
<path d="M26.9565 26.9565L31.6522 35.1304H41.0435L45.7392 26.9565L41.0435 18.7826H31.7392" stroke="white" stroke-miterlimit="10"/>
<path d="M26.9565 52.8695C41.3043 52.8695 52.8695 41.3043 52.8695 26.9565C52.8695 12.6087 41.3043 1.04347 26.9565 1.04347C12.6087 1.04347 1.04346 12.6956 1.04346 26.9565C1.04346 41.2174 12.6956 52.8695 26.9565 52.8695Z" stroke="white" stroke-miterlimit="10"/>
<path d="M12.8696 48.9565L40.0001 5.21738" stroke="white" stroke-miterlimit="10"/>
</svg>
