<svg width="45" height="45" viewBox="0 0 45 45" fill="none" xmlns="http://www.w3.org/2000/svg">
<path d="M19.6875 24.7201L19.3482 24.3809C18.3869 23.4196 17.8215 22.119 17.8215 20.7618C17.8215 19.122 17.0864 17.5386 15.6727 16.4077C13.637 14.8244 10.753 14.8244 8.71734 16.4077C6.05962 18.5565 5.88998 22.4017 8.26496 24.7767C9.33936 25.8511 10.6965 26.36 12.1102 26.4166C13.4673 26.4166 14.8245 26.982 15.7858 27.9433L16.125 28.2826C17.0864 29.2439 17.6518 30.5445 17.6518 31.9017C17.6518 33.5415 18.3869 35.1249 19.8006 36.2558C21.8363 37.8391 24.7202 37.8391 26.756 36.2558C29.4137 34.107 29.5833 30.2618 27.2083 27.8868C26.1339 26.8124 24.7768 26.3035 23.3631 26.2469C21.9494 26.2469 20.6488 25.738 19.6875 24.7201Z" stroke="white" stroke-miterlimit="10"/>
<path d="M34.4462 25.3987C36.6011 25.3987 38.348 23.6518 38.348 21.4969C38.348 19.342 36.6011 17.5952 34.4462 17.5952C32.2913 17.5952 30.5444 19.342 30.5444 21.4969C30.5444 23.6518 32.2913 25.3987 34.4462 25.3987Z" stroke="white" stroke-miterlimit="10"/>
<path d="M21.045 11.7142C22.2318 11.7142 23.1938 10.7522 23.1938 9.56543C23.1938 8.37868 22.2318 7.41663 21.045 7.41663C19.8583 7.41663 18.8962 8.37868 18.8962 9.56543C18.8962 10.7522 19.8583 11.7142 21.045 11.7142Z" stroke="white" stroke-miterlimit="10"/>
<path d="M22.4584 43.8331C34.2634 43.8331 43.8333 34.2633 43.8333 22.4582C43.8333 10.6532 34.2634 1.08334 22.4584 1.08334C10.6534 1.08334 1.0835 10.6532 1.0835 22.4582C1.0835 34.2633 10.6534 43.8331 22.4584 43.8331Z" stroke="white" stroke-miterlimit="10"/>
<path d="M10.8096 40.6099L33.2023 4.53271" stroke="white" stroke-miterlimit="10"/>
</svg>
