<svg width="54" height="54" viewBox="0 0 54 54" fill="none" xmlns="http://www.w3.org/2000/svg">
<path d="M26.9565 52.8695C41.3043 52.8695 52.8695 41.3043 52.8695 26.9565C52.8695 12.6087 41.3043 1.04347 26.9565 1.04347C12.6087 1.04347 1.04346 12.6956 1.04346 26.9565C1.04346 41.2174 12.6956 52.8695 26.9565 52.8695Z" stroke="white" stroke-miterlimit="10"/>
<path d="M12.8696 48.9565L40.0001 5.21739" stroke="white" stroke-miterlimit="10"/>
<path d="M8.95667 26.9565C9.13058 26.9565 9.39145 26.9565 9.56536 26.9565C9.73927 26.9565 10.0001 26.9565 10.1741 26.9565C19.5654 26.6086 27.0436 18.9565 27.0436 9.47821" stroke="white" stroke-miterlimit="10"/>
<path d="M26.9564 9.56517C26.9564 19.0434 34.4347 26.6956 43.826 27.0434C43.9999 27.0434 44.2608 27.0434 44.4347 27.0434C44.6086 27.0434 44.8695 27.0434 45.0434 27.0434" stroke="white" stroke-miterlimit="10"/>
<path d="M26.9563 44.4347C26.9563 34.9565 19.4781 27.3043 10.0868 26.9565C9.91286 26.9565 9.65199 26.9565 9.47808 26.9565C9.30417 26.9565 9.0433 26.9565 8.86938 26.9565" stroke="white" stroke-miterlimit="10"/>
<path d="M10.0868 26.9565C10.0868 26.9565 9.81425 26.9565 9.47808 26.9565C9.14191 26.9565 8.86938 26.9565 8.86938 26.9565C8.86938 26.9565 9.14191 26.9565 9.47808 26.9565C9.81425 26.9565 10.0868 26.9565 10.0868 26.9565Z" stroke="white" stroke-miterlimit="10"/>
<path d="M45.0434 26.9565C44.8695 26.9565 44.6086 26.9565 44.4347 26.9565C44.2608 26.9565 43.9999 26.9565 43.826 26.9565C34.5216 27.3043 26.9564 34.9565 26.9564 44.4347" stroke="white" stroke-miterlimit="10"/>
<path d="M45.0433 26.9565C45.0433 26.9565 44.7708 26.9565 44.4346 26.9565C44.0985 26.9565 43.8259 26.9565 43.8259 26.9565C43.8259 26.9565 44.0985 26.9565 44.4346 26.9565C44.7708 26.9565 45.0433 26.9565 45.0433 26.9565Z" stroke="white" stroke-miterlimit="10"/>
</svg>
