<svg width="45" height="45" viewBox="0 0 45 45" fill="none" xmlns="http://www.w3.org/2000/svg">
<path d="M22.2318 9.05649H14.4848L10.583 15.7291L14.4848 22.4582H22.2318L26.077 15.7291L22.2318 9.05649Z" stroke="white" stroke-miterlimit="10"/>
<path d="M22.1752 22.4583H14.4282L10.583 29.1874L14.4282 35.86H22.1752L26.077 29.1874L22.1752 22.4583Z" stroke="white" stroke-miterlimit="10"/>
<path d="M22.1753 22.4582L26.0771 29.1873H33.824L37.6693 22.4582L33.824 15.7291H26.0771" stroke="white" stroke-miterlimit="10"/>
<path d="M22.1752 43.8331C33.9802 43.8331 43.5501 34.2633 43.5501 22.4582C43.5501 10.6532 33.9802 1.08334 22.1752 1.08334C10.3702 1.08334 0.800293 10.6532 0.800293 22.4582C0.800293 34.2633 10.3702 43.8331 22.1752 43.8331Z" stroke="white" stroke-miterlimit="10"/>
<path d="M10.5261 40.6098L32.9189 4.53256" stroke="white" stroke-miterlimit="10"/>
</svg>
